<?xml version="1.0" encoding="UTF-8" standalone="no"?>
<!-- Created with Inkscape (http://www.inkscape.org/) -->

<svg
   width="267.27841mm"
   height="155.735mm"
   viewBox="0 0 267.27841 155.735"
   version="1.1"
   id="svg5"
   xmlns="http://www.w3.org/2000/svg"
   xmlns:svg="http://www.w3.org/2000/svg">
  <defs
     id="defs2" />
  <g
     id="layer1"
     transform="translate(-28.846687,-142.28695)">
    <ellipse
       style="fill:#00adef;fill-opacity:1;stroke:#005c87;stroke-width:1.5;stroke-miterlimit:4;stroke-dasharray:none;stroke-opacity:1;paint-order:normal;stop-color:#000000"
       id="ellipse17424"
       ry="73.1175"
       rx="68.4375"
       cy="220.15445"
       cx="102.03419" />
    <ellipse
       style="fill:#53c8f5;fill-opacity:1;stroke:#005c87;stroke-width:1.5;stroke-miterlimit:4;stroke-dasharray:none;stroke-opacity:1;paint-order:normal;stop-color:#000000"
       id="ellipse17996"
       ry="52.012501"
       rx="56.90625"
       cy="234.71454"
       cx="102.03419" />
    <ellipse
       style="fill:#a8e4fa;fill-opacity:1;stroke:#005c87;stroke-width:1.5;stroke-miterlimit:4;stroke-dasharray:none;stroke-opacity:1;paint-order:normal;stop-color:#000000"
       id="ellipse17422"
       ry="34.424999"
       rx="45.375"
       cy="246.07045"
       cx="102.03419" />
    <ellipse
       style="fill:#ffffff;fill-opacity:1;stroke:#005c87;stroke-width:1.5;stroke-miterlimit:4;stroke-dasharray:none;stroke-opacity:1;paint-order:normal;stop-color:#000000"
       id="ellipse16496"
       ry="16"
       rx="30"
       cy="257.57611"
       cx="102.03419" />
    <g
       aria-label="PL 4
PL 3
PL 2
PL 1"
       id="text3092"
       style="font-size:19.7556px;line-height:1.5;font-family:'Museo Sans Rounded';-inkscape-font-specification:'Museo Sans Rounded';letter-spacing:0px;word-spacing:0px;stroke-width:0.264583">
      <path
         d="m 86.792745,168.52775 h 4.524033 c 1.126069,0 2.015071,-0.33584 2.785539,-1.02729 0.869247,-0.79022 1.244603,-1.71874 1.244603,-3.04236 0,-2.70652 -1.600204,-4.2277 -4.44501,-4.2277 h -5.946436 v 14.40183 h 1.837271 z m 0,-1.61996 v -5.05743 h 3.832587 c 1.758248,0 2.805295,0.94827 2.805295,2.52872 0,1.58044 -1.047047,2.52871 -2.805295,2.52871 z"
         style="font-family:'Nimbus Sans';-inkscape-font-specification:'Nimbus Sans'"
         id="path253422" />
      <path
         d="M 99.199261,160.2304 H 97.36199 v 14.40183 h 8.94929 v -1.61996 h -7.112019 z"
         style="font-family:'Nimbus Sans';-inkscape-font-specification:'Nimbus Sans'"
         id="path253424" />
      <path
         d="m 118.71779,171.175 v 3.45723 h 1.73849 V 171.175 h 2.07434 v -1.56069 h -2.07434 v -9.26538 h -1.28411 l -6.36131,8.9888 v 1.83727 z m 0,-1.56069 h -4.38575 l 4.38575,-6.30204 z"
         style="font-family:'Nimbus Sans';-inkscape-font-specification:'Nimbus Sans'"
         id="path253426" />
      <path
         d="m 86.792745,198.57602 h 4.524033 c 1.126069,0 2.015071,-0.33585 2.785539,-1.02729 0.869247,-0.79023 1.244603,-1.71874 1.244603,-3.04236 0,-2.70652 -1.600204,-4.2277 -4.44501,-4.2277 h -5.946436 v 14.40183 h 1.837271 z m 0,-1.61996 v -5.05743 h 3.832587 c 1.758248,0 2.805295,0.94827 2.805295,2.52871 0,1.58045 -1.047047,2.52872 -2.805295,2.52872 z"
         style="font-family:'Nimbus Sans';-inkscape-font-specification:'Nimbus Sans'"
         id="path253428" />
      <path
         d="M 99.199261,190.27867 H 97.36199 v 14.40183 h 8.94929 v -1.61996 h -7.112019 z"
         style="font-family:'Nimbus Sans';-inkscape-font-specification:'Nimbus Sans'"
         id="path253430" />
      <path
         d="m 116.62369,198.10189 h 0.21731 0.73096 c 1.89654,0 2.90408,0.889 2.90408,2.60773 0,1.79776 -1.08656,2.88432 -2.88432,2.88432 -1.9163,0 -2.84481,-0.96802 -2.96334,-3.06212 h -1.7385 c 0.079,1.14583 0.27658,1.89654 0.61243,2.52872 0.73096,1.38289 2.09409,2.07434 4.01039,2.07434 2.88431,0 4.74134,-1.73849 4.74134,-4.44501 0,-1.81752 -0.69145,-2.8053 -2.37067,-3.39796 1.30387,-0.53341 1.9558,-1.52119 1.9558,-2.96334 0,-2.4497 -1.6002,-3.93137 -4.26721,-3.93137 -2.82505,0 -4.32647,1.58045 -4.38574,4.60306 h 1.73849 c 0.0198,-0.86925 0.0988,-1.36314 0.31609,-1.79776 0.39511,-0.80998 1.26436,-1.28412 2.35092,-1.28412 1.54093,0 2.46945,0.92852 2.46945,2.46945 0,1.00754 -0.3556,1.61996 -1.12607,1.95581 -0.47414,0.19755 -1.10632,0.27658 -2.31141,0.29633 z"
         style="font-family:'Nimbus Sans';-inkscape-font-specification:'Nimbus Sans'"
         id="path253432" />
      <path
         d="m 86.792745,228.62429 h 4.524033 c 1.126069,0 2.015071,-0.33585 2.785539,-1.02729 0.869247,-0.79023 1.244603,-1.71874 1.244603,-3.04237 0,-2.70651 -1.600204,-4.22769 -4.44501,-4.22769 h -5.946436 v 14.40183 h 1.837271 z m 0,-1.61996 v -5.05744 h 3.832587 c 1.758248,0 2.805295,0.94827 2.805295,2.52872 0,1.58045 -1.047047,2.52872 -2.805295,2.52872 z"
         style="font-family:'Nimbus Sans';-inkscape-font-specification:'Nimbus Sans'"
         id="path253434" />
      <path
         d="M 99.199261,220.32694 H 97.36199 v 14.40183 h 8.94929 v -1.61996 h -7.112019 z"
         style="font-family:'Nimbus Sans';-inkscape-font-specification:'Nimbus Sans'"
         id="path253436" />
      <path
         d="m 122.25404,233.01003 h -7.36884 c 0.1778,-1.18534 0.80998,-1.93605 2.52872,-2.9831 l 1.97556,-1.10631 c 1.9558,-1.08656 2.96334,-2.54847 2.96334,-4.30672 0,-1.18534 -0.47414,-2.29165 -1.30387,-3.06212 -0.82974,-0.75071 -1.85703,-1.10631 -3.18065,-1.10631 -1.77801,0 -3.10163,0.63218 -3.8721,1.85703 -0.49389,0.75071 -0.7112,1.63971 -0.75071,3.08187 h 1.73849 c 0.0593,-0.96803 0.1778,-1.54094 0.41487,-2.01507 0.45437,-0.86925 1.36313,-1.40265 2.41018,-1.40265 1.58045,0 2.76578,1.14583 2.76578,2.68676 0,1.14583 -0.65193,2.13361 -1.89653,2.84481 l -1.81752,1.0668 c -2.92383,1.67923 -3.77332,3.02261 -3.93136,6.14399 h 9.32464 z"
         style="font-family:'Nimbus Sans';-inkscape-font-specification:'Nimbus Sans'"
         id="path253438" />
      <path
         d="m 86.792745,258.67255 h 4.524033 c 1.126069,0 2.015071,-0.33584 2.785539,-1.02729 0.869247,-0.79022 1.244603,-1.71873 1.244603,-3.04236 0,-2.70652 -1.600204,-4.2277 -4.44501,-4.2277 h -5.946436 v 14.40184 h 1.837271 z m 0,-1.61995 v -5.05744 h 3.832587 c 1.758248,0 2.805295,0.94827 2.805295,2.52872 0,1.58045 -1.047047,2.52872 -2.805295,2.52872 z"
         style="font-family:'Nimbus Sans';-inkscape-font-specification:'Nimbus Sans'"
         id="path253440" />
      <path
         d="M 99.199261,250.3752 H 97.36199 v 14.40184 h 8.94929 v -1.61996 h -7.112019 z"
         style="font-family:'Nimbus Sans';-inkscape-font-specification:'Nimbus Sans'"
         id="path253442" />
      <path
         d="m 117.37441,254.6029 v 10.17414 h 1.73849 v -14.2833 h -1.14583 c -0.61242,2.19287 -1.00753,2.4892 -3.69429,2.8448 v 1.26436 z"
         style="font-family:'Nimbus Sans';-inkscape-font-specification:'Nimbus Sans'"
         id="path253444" />
    </g>
    <path
       style="opacity:1;fill:none;fill-opacity:1;stroke:#000000;stroke-width:1.5;stroke-linecap:butt;stroke-linejoin:miter;stroke-miterlimit:4;stroke-dasharray:none;stroke-dashoffset:0;stroke-opacity:1"
       d="m 147.58376,180.55538 11.82899,-11.82899 h 21.43394"
       id="path229889" />
    <g
       aria-label="Very aggressive rules
False positives likely"
       id="text231769"
       style="font-size:11.2889px;line-height:1.25;font-family:'Museo Sans Rounded';-inkscape-font-specification:'Museo Sans Rounded';letter-spacing:0px;word-spacing:0px;stroke-width:0.264583">
      <path
         d="m 188.25594,164.37108 4.60587,-8.22961 h -1.1176 l -3.79307,6.96525 -0.93698,-6.96525 h -1.09502 l 1.20791,8.22961 z"
         style="font-style:italic;font-family:'Nimbus Sans';-inkscape-font-specification:'Nimbus Sans Italic'"
         id="path253465" />
      <path
         d="m 197.10642,161.72948 c 0.15805,-0.88054 0.19191,-1.15147 0.19191,-1.51272 0,-1.09502 -0.93697,-1.9304 -2.15618,-1.9304 -0.98213,0 -1.91911,0.46285 -2.49484,1.2192 -0.53058,0.7112 -0.94827,1.98685 -0.94827,2.91254 0,0.6096 0.27093,1.23049 0.69991,1.64818 0.39511,0.38382 0.89183,0.56444 1.53529,0.56444 1.35467,0 2.51743,-0.83538 2.86738,-2.05458 h -0.94826 c -0.4064,0.77894 -1.00472,1.18534 -1.76107,1.18534 -0.89183,0 -1.39983,-0.55316 -1.39983,-1.51271 0,-0.24836 0.0113,-0.34996 0.0564,-0.51929 z m -4.15431,-0.81281 c 0.29351,-1.03857 1.12889,-1.76106 2.04329,-1.76106 0.68862,0 1.14018,0.37253 1.27564,1.04986 0.0226,0.11289 0.0339,0.22578 0.0339,0.33867 0,0.1016 -0.0113,0.19191 -0.0339,0.37253 z"
         style="font-style:italic;font-family:'Nimbus Sans';-inkscape-font-specification:'Nimbus Sans Italic'"
         id="path253467" />
      <path
         d="m 199.0594,158.45569 -1.25307,5.91539 h 0.94827 l 0.65476,-3.07058 c 0.28222,-1.33209 1.03857,-2.02072 2.22391,-2.02072 h 0.11289 l 0.2032,-0.95955 -0.0677,-0.0113 c -0.1016,-0.0113 -0.19192,-0.0226 -0.29352,-0.0226 -0.65475,0 -1.15146,0.29351 -1.86266,1.09502 l 0.19191,-0.92569 z"
         style="font-style:italic;font-family:'Nimbus Sans';-inkscape-font-specification:'Nimbus Sans Italic'"
         id="path253469" />
      <path
         d="m 206.60039,158.45569 -2.63032,4.59459 -0.51929,-4.59459 h -1.016 l 0.76765,5.96054 -0.58702,0.91441 c -0.24836,0.39511 -0.33867,0.46284 -0.58703,0.54186 -0.1016,0.0339 -0.21449,0.0452 -0.32737,0.0452 -0.11289,0 -0.15805,0 -0.48543,-0.0452 l -0.18062,0.84667 c 0.12418,0.0564 0.19191,0.0677 0.28222,0.0903 0.079,0.0113 0.16934,0.0226 0.27094,0.0226 0.80151,0 1.37724,-0.37253 1.86266,-1.2192 l 4.15432,-7.15717 z"
         style="font-style:italic;font-family:'Nimbus Sans';-inkscape-font-specification:'Nimbus Sans Italic'"
         id="path253471" />
      <path
         d="m 215.95888,163.79534 c -0.1016,0.0226 -0.14675,0.0226 -0.19191,0.0226 -0.23706,0 -0.38382,-0.079 -0.41769,-0.21449 -0.0113,-0.0339 -0.0113,-0.0677 -0.0113,-0.11289 0,-0.0339 0,-0.079 0.0113,-0.11288 l 0.72249,-3.39796 c 0.0677,-0.3048 0.0677,-0.3048 0.0677,-0.41769 0,-0.55316 -0.46285,-1.02729 -1.14018,-1.18534 -0.25965,-0.0564 -0.54187,-0.0903 -0.82409,-0.0903 -1.58045,0 -2.52872,0.66605 -2.7432,1.91911 h 0.94826 c 0.1016,-0.31608 0.18063,-0.47413 0.33867,-0.63217 0.24836,-0.25965 0.72249,-0.41769 1.20791,-0.41769 0.508,0 0.93698,0.16933 1.1176,0.45155 0.0565,0.079 0.079,0.16934 0.079,0.27094 0,0.0452 -0.0113,0.12417 -0.0226,0.21449 l -0.0339,0.2032 c -0.079,0.44026 -0.32738,0.59831 -1.14018,0.66604 -1.12889,0.1016 -1.6256,0.18062 -2.032,0.33867 -0.73378,0.28222 -1.20791,0.77893 -1.37725,1.43369 -0.0339,0.14675 -0.0564,0.3048 -0.0564,0.45155 0,0.64347 0.31609,1.12889 0.86925,1.32081 0.22577,0.079 0.48542,0.12417 0.74506,0.12417 0.41769,0 0.86925,-0.079 1.28694,-0.22577 0.34995,-0.12418 0.53058,-0.23707 0.99342,-0.64347 v 0.079 0.0452 c 0,0.32737 0.16933,0.58702 0.44027,0.67733 0.12418,0.0452 0.27093,0.0677 0.41769,0.0677 0.13546,0 0.16933,0 0.44026,-0.0677 0.0339,-0.0113 0.0903,-0.0226 0.15805,-0.0339 z m -1.36595,-1.27564 c -0.14676,0.69991 -1.14018,1.29822 -2.1336,1.29822 -0.39512,0 -0.68863,-0.1016 -0.84667,-0.28222 -0.1016,-0.12418 -0.15805,-0.28222 -0.15805,-0.46285 0,-0.37253 0.21449,-0.74506 0.55316,-0.94826 0.27093,-0.16934 0.59831,-0.25965 1.16276,-0.33867 1.14017,-0.15804 1.15146,-0.15804 1.64818,-0.32738 z"
         style="font-style:italic;font-family:'Nimbus Sans';-inkscape-font-specification:'Nimbus Sans Italic'"
         id="path253473" />
      <path
         d="m 221.9533,158.45569 -0.19192,0.88054 c -0.24835,-0.53058 -0.53057,-0.80151 -1.00471,-0.95956 -0.18062,-0.0564 -0.37253,-0.0903 -0.56444,-0.0903 -0.86925,0 -1.74978,0.42898 -2.30294,1.12889 -0.6096,0.75636 -1.02729,2.00943 -1.02729,3.05929 0,0.88054 0.39511,1.56916 1.08374,1.89654 0.27093,0.12418 0.56444,0.19191 0.86924,0.19191 0.7112,0 1.36596,-0.3048 1.94169,-0.90311 l -0.0452,0.21449 c -0.32738,1.53529 -0.92569,2.14489 -2.13361,2.14489 -0.76764,0 -1.2192,-0.3048 -1.2192,-0.8128 v -0.0677 -0.0903 h -0.94826 c -0.0113,0.2032 -0.0226,0.31609 -0.0226,0.34996 0,0.6096 0.45155,1.14018 1.10631,1.3208 0.27093,0.079 0.57573,0.11289 0.89182,0.11289 0.90311,0 1.69334,-0.27093 2.20134,-0.75636 0.56444,-0.54186 0.86924,-1.23049 1.17404,-2.66418 l 1.04987,-4.95583 z m -1.82881,0.69992 c 0.47414,0 0.90312,0.28222 1.07245,0.68862 0.079,0.21449 0.12418,0.42898 0.12418,0.69991 0,0.69991 -0.2032,1.524 -0.51929,2.08845 -0.37254,0.68862 -1.03858,1.1176 -1.71592,1.1176 -0.75635,0 -1.23049,-0.55316 -1.23049,-1.45627 0,-0.56444 0.11289,-1.1176 0.34996,-1.65947 0.27093,-0.63218 0.6096,-1.016 1.09502,-1.27564 0.28223,-0.14676 0.508,-0.2032 0.82409,-0.2032 z"
         style="font-style:italic;font-family:'Nimbus Sans';-inkscape-font-specification:'Nimbus Sans Italic'"
         id="path253475" />
      <path
         d="m 228.27508,158.45569 -0.19191,0.88054 c -0.24836,-0.53058 -0.53058,-0.80151 -1.00472,-0.95956 -0.18062,-0.0564 -0.37253,-0.0903 -0.56444,-0.0903 -0.86925,0 -1.74978,0.42898 -2.30294,1.12889 -0.6096,0.75636 -1.02729,2.00943 -1.02729,3.05929 0,0.88054 0.39511,1.56916 1.08374,1.89654 0.27093,0.12418 0.56444,0.19191 0.86924,0.19191 0.7112,0 1.36596,-0.3048 1.94169,-0.90311 l -0.0452,0.21449 c -0.32738,1.53529 -0.92569,2.14489 -2.1336,2.14489 -0.76765,0 -1.21921,-0.3048 -1.21921,-0.8128 v -0.0677 -0.0903 h -0.94826 c -0.0113,0.2032 -0.0226,0.31609 -0.0226,0.34996 0,0.6096 0.45155,1.14018 1.10631,1.3208 0.27093,0.079 0.57573,0.11289 0.89182,0.11289 0.90312,0 1.69334,-0.27093 2.20134,-0.75636 0.56444,-0.54186 0.86925,-1.23049 1.17405,-2.66418 l 1.04986,-4.95583 z m -1.82881,0.69992 c 0.47414,0 0.90312,0.28222 1.07245,0.68862 0.079,0.21449 0.12418,0.42898 0.12418,0.69991 0,0.69991 -0.2032,1.524 -0.51929,2.08845 -0.37253,0.68862 -1.03858,1.1176 -1.71591,1.1176 -0.75636,0 -1.23049,-0.55316 -1.23049,-1.45627 0,-0.56444 0.11288,-1.1176 0.34995,-1.65947 0.27094,-0.63218 0.6096,-1.016 1.09503,-1.27564 0.28222,-0.14676 0.508,-0.2032 0.82408,-0.2032 z"
         style="font-style:italic;font-family:'Nimbus Sans';-inkscape-font-specification:'Nimbus Sans Italic'"
         id="path253477" />
      <path
         d="m 230.65703,158.45569 -1.25307,5.91539 h 0.94827 l 0.65475,-3.07058 c 0.28223,-1.33209 1.03858,-2.02072 2.22392,-2.02072 h 0.11289 l 0.2032,-0.95955 -0.0677,-0.0113 c -0.1016,-0.0113 -0.19191,-0.0226 -0.29351,-0.0226 -0.65475,0 -1.15147,0.29351 -1.86267,1.09502 l 0.19192,-0.92569 z"
         style="font-style:italic;font-family:'Nimbus Sans';-inkscape-font-specification:'Nimbus Sans Italic'"
         id="path253479" />
      <path
         d="m 238.57056,161.72948 c 0.15804,-0.88054 0.19191,-1.15147 0.19191,-1.51272 0,-1.09502 -0.93698,-1.9304 -2.15618,-1.9304 -0.98213,0 -1.91911,0.46285 -2.49485,1.2192 -0.53057,0.7112 -0.94826,1.98685 -0.94826,2.91254 0,0.6096 0.27093,1.23049 0.69991,1.64818 0.39511,0.38382 0.89182,0.56444 1.53529,0.56444 1.35467,0 2.51742,-0.83538 2.86738,-2.05458 h -0.94827 c -0.4064,0.77894 -1.00471,1.18534 -1.76107,1.18534 -0.89182,0 -1.39982,-0.55316 -1.39982,-1.51271 0,-0.24836 0.0113,-0.34996 0.0564,-0.51929 z m -4.15432,-0.81281 c 0.29352,-1.03857 1.12889,-1.76106 2.0433,-1.76106 0.68862,0 1.14017,0.37253 1.27564,1.04986 0.0226,0.11289 0.0339,0.22578 0.0339,0.33867 0,0.1016 -0.0113,0.19191 -0.0339,0.37253 z"
         style="font-style:italic;font-family:'Nimbus Sans';-inkscape-font-specification:'Nimbus Sans Italic'"
         id="path253481" />
      <path
         d="m 244.26016,160.10387 c 0.0564,-0.23706 0.0677,-0.33866 0.0677,-0.48542 0,-0.79022 -0.74506,-1.33209 -1.85138,-1.33209 -0.80151,0 -1.49013,0.23707 -1.95298,0.67734 -0.41769,0.39511 -0.67733,0.98213 -0.67733,1.51271 0,0.68862 0.39511,1.016 1.55787,1.3208 l 0.83538,0.21449 c 0.37253,0.1016 0.54186,0.16933 0.64346,0.29351 0.079,0.1016 0.14676,0.27093 0.14676,0.37253 0,0.13547 -0.11289,0.41769 -0.21449,0.55316 -0.18062,0.22578 -0.51929,0.4064 -0.92569,0.48542 -0.15804,0.0339 -0.31609,0.0452 -0.47413,0.0452 -0.67734,0 -1.07245,-0.21449 -1.18534,-0.63218 -0.0226,-0.079 -0.0339,-0.15805 -0.0339,-0.23707 0,-0.0677 0.0113,-0.16933 0.0226,-0.28222 h -1.00471 c -0.0564,0.25964 -0.0677,0.39511 -0.0677,0.57573 0,0.67734 0.46284,1.17405 1.25307,1.35467 0.27093,0.0564 0.55315,0.0903 0.84666,0.0903 1.68205,0 2.77707,-0.86924 2.77707,-2.21262 0,-0.68862 -0.37253,-1.04987 -1.36595,-1.29822 l -0.85796,-0.21449 c -0.53058,-0.13547 -0.84667,-0.31609 -0.93698,-0.54187 -0.0113,-0.0339 -0.0226,-0.079 -0.0226,-0.13547 0,-0.22578 0.13547,-0.508 0.33867,-0.69991 0.27093,-0.25964 0.6096,-0.37253 1.10631,-0.37253 0.53058,0 0.85796,0.15804 0.99342,0.45155 0.0339,0.0677 0.0452,0.14676 0.0452,0.24836 0,0.0677 0,0.15804 -0.0113,0.24835 z"
         style="font-style:italic;font-family:'Nimbus Sans';-inkscape-font-specification:'Nimbus Sans Italic'"
         id="path253483" />
      <path
         d="m 249.84817,160.10387 c 0.0564,-0.23706 0.0677,-0.33866 0.0677,-0.48542 0,-0.79022 -0.74507,-1.33209 -1.85138,-1.33209 -0.80152,0 -1.49014,0.23707 -1.95298,0.67734 -0.41769,0.39511 -0.67734,0.98213 -0.67734,1.51271 0,0.68862 0.39511,1.016 1.55787,1.3208 l 0.83538,0.21449 c 0.37253,0.1016 0.54187,0.16933 0.64347,0.29351 0.079,0.1016 0.14675,0.27093 0.14675,0.37253 0,0.13547 -0.11289,0.41769 -0.21449,0.55316 -0.18062,0.22578 -0.51929,0.4064 -0.92569,0.48542 -0.15804,0.0339 -0.31609,0.0452 -0.47413,0.0452 -0.67733,0 -1.07245,-0.21449 -1.18534,-0.63218 -0.0226,-0.079 -0.0339,-0.15805 -0.0339,-0.23707 0,-0.0677 0.0113,-0.16933 0.0226,-0.28222 h -1.00472 c -0.0564,0.25964 -0.0677,0.39511 -0.0677,0.57573 0,0.67734 0.46285,1.17405 1.25307,1.35467 0.27093,0.0564 0.55315,0.0903 0.84667,0.0903 1.68204,0 2.77707,-0.86924 2.77707,-2.21262 0,-0.68862 -0.37254,-1.04987 -1.36596,-1.29822 l -0.85796,-0.21449 c -0.53058,-0.13547 -0.84667,-0.31609 -0.93698,-0.54187 -0.0113,-0.0339 -0.0226,-0.079 -0.0226,-0.13547 0,-0.22578 0.13546,-0.508 0.33866,-0.69991 0.27094,-0.25964 0.6096,-0.37253 1.10631,-0.37253 0.53058,0 0.85796,0.15804 0.99343,0.45155 0.0339,0.0677 0.0452,0.14676 0.0452,0.24836 0,0.0677 0,0.15804 -0.0113,0.24835 z"
         style="font-style:italic;font-family:'Nimbus Sans';-inkscape-font-specification:'Nimbus Sans Italic'"
         id="path253485" />
      <path
         d="m 252.63654,158.45569 h -0.94827 l -1.25307,5.91539 h 0.94827 z m 0.49671,-2.31422 h -0.94827 l -0.24836,1.16276 h 0.94827 z"
         style="font-style:italic;font-family:'Nimbus Sans';-inkscape-font-specification:'Nimbus Sans Italic'"
         id="path253487" />
      <path
         d="m 255.28942,164.37108 3.51085,-5.91539 h -1.02729 l -2.75449,4.76392 -0.55316,-4.76392 h -1.03858 l 0.83538,5.91539 z"
         style="font-style:italic;font-family:'Nimbus Sans';-inkscape-font-specification:'Nimbus Sans Italic'"
         id="path253489" />
      <path
         d="m 263.78995,161.72948 c 0.15805,-0.88054 0.19192,-1.15147 0.19192,-1.51272 0,-1.09502 -0.93698,-1.9304 -2.15618,-1.9304 -0.98214,0 -1.91912,0.46285 -2.49485,1.2192 -0.53058,0.7112 -0.94827,1.98685 -0.94827,2.91254 0,0.6096 0.27093,1.23049 0.69991,1.64818 0.39511,0.38382 0.89183,0.56444 1.53529,0.56444 1.35467,0 2.51743,-0.83538 2.86738,-2.05458 h -0.94826 c -0.4064,0.77894 -1.00472,1.18534 -1.76107,1.18534 -0.89183,0 -1.39983,-0.55316 -1.39983,-1.51271 0,-0.24836 0.0113,-0.34996 0.0564,-0.51929 z m -4.15431,-0.81281 c 0.29351,-1.03857 1.12889,-1.76106 2.04329,-1.76106 0.68862,0 1.14018,0.37253 1.27565,1.04986 0.0226,0.11289 0.0339,0.22578 0.0339,0.33867 0,0.1016 -0.0113,0.19191 -0.0339,0.37253 z"
         style="font-style:italic;font-family:'Nimbus Sans';-inkscape-font-specification:'Nimbus Sans Italic'"
         id="path253491" />
      <path
         d="m 268.88125,158.45569 -1.25307,5.91539 h 0.94826 l 0.65476,-3.07058 c 0.28222,-1.33209 1.03858,-2.02072 2.22391,-2.02072 h 0.11289 l 0.2032,-0.95955 -0.0677,-0.0113 c -0.1016,-0.0113 -0.19191,-0.0226 -0.29351,-0.0226 -0.65476,0 -1.15147,0.29351 -1.86267,1.09502 l 0.19191,-0.92569 z"
         style="font-style:italic;font-family:'Nimbus Sans';-inkscape-font-specification:'Nimbus Sans Italic'"
         id="path253493" />
      <path
         d="m 275.98197,164.37108 1.25306,-5.91539 h -0.94826 l -0.7112,3.35281 c -0.25965,1.2192 -1.04987,2.00942 -2.02072,2.00942 -0.53058,0 -0.89182,-0.23706 -0.98213,-0.65475 -0.0113,-0.0677 -0.0226,-0.14676 -0.0226,-0.21449 0,-0.0903 0.0113,-0.19191 0.0339,-0.3048 l 0.89182,-4.18819 h -0.94827 l -0.97084,4.56072 c -0.0226,0.11289 -0.0339,0.23707 -0.0339,0.38382 0,0.59831 0.37253,1.03858 1.00471,1.17405 0.16934,0.0339 0.36125,0.0564 0.55316,0.0564 0.88053,0 1.524,-0.27093 2.17876,-0.90311 l -0.13547,0.64347 z"
         style="font-style:italic;font-family:'Nimbus Sans';-inkscape-font-specification:'Nimbus Sans Italic'"
         id="path253495" />
      <path
         d="m 280.27175,156.14147 h -0.94827 l -1.74978,8.22961 h 0.94827 z"
         style="font-style:italic;font-family:'Nimbus Sans';-inkscape-font-specification:'Nimbus Sans Italic'"
         id="path253497" />
      <path
         d="m 285.66784,161.72948 c 0.15804,-0.88054 0.19191,-1.15147 0.19191,-1.51272 0,-1.09502 -0.93698,-1.9304 -2.15618,-1.9304 -0.98213,0 -1.91911,0.46285 -2.49485,1.2192 -0.53058,0.7112 -0.94827,1.98685 -0.94827,2.91254 0,0.6096 0.27094,1.23049 0.69992,1.64818 0.39511,0.38382 0.89182,0.56444 1.53529,0.56444 1.35467,0 2.51742,-0.83538 2.86738,-2.05458 h -0.94827 c -0.4064,0.77894 -1.00471,1.18534 -1.76107,1.18534 -0.89182,0 -1.39982,-0.55316 -1.39982,-1.51271 0,-0.24836 0.0113,-0.34996 0.0564,-0.51929 z m -4.15432,-0.81281 c 0.29351,-1.03857 1.12889,-1.76106 2.04329,-1.76106 0.68863,0 1.14018,0.37253 1.27565,1.04986 0.0226,0.11289 0.0339,0.22578 0.0339,0.33867 0,0.1016 -0.0113,0.19191 -0.0339,0.37253 z"
         style="font-style:italic;font-family:'Nimbus Sans';-inkscape-font-specification:'Nimbus Sans Italic'"
         id="path253499" />
      <path
         d="m 291.35744,160.10387 c 0.0564,-0.23706 0.0677,-0.33866 0.0677,-0.48542 0,-0.79022 -0.74507,-1.33209 -1.85138,-1.33209 -0.80152,0 -1.49014,0.23707 -1.95298,0.67734 -0.41769,0.39511 -0.67734,0.98213 -0.67734,1.51271 0,0.68862 0.39511,1.016 1.55787,1.3208 l 0.83538,0.21449 c 0.37253,0.1016 0.54187,0.16933 0.64347,0.29351 0.079,0.1016 0.14675,0.27093 0.14675,0.37253 0,0.13547 -0.11289,0.41769 -0.21449,0.55316 -0.18062,0.22578 -0.51929,0.4064 -0.92569,0.48542 -0.15804,0.0339 -0.31609,0.0452 -0.47413,0.0452 -0.67734,0 -1.07245,-0.21449 -1.18534,-0.63218 -0.0226,-0.079 -0.0339,-0.15805 -0.0339,-0.23707 0,-0.0677 0.0113,-0.16933 0.0226,-0.28222 h -1.00472 c -0.0564,0.25964 -0.0677,0.39511 -0.0677,0.57573 0,0.67734 0.46284,1.17405 1.25307,1.35467 0.27093,0.0564 0.55315,0.0903 0.84667,0.0903 1.68204,0 2.77706,-0.86924 2.77706,-2.21262 0,-0.68862 -0.37253,-1.04987 -1.36595,-1.29822 l -0.85796,-0.21449 c -0.53058,-0.13547 -0.84667,-0.31609 -0.93698,-0.54187 -0.0113,-0.0339 -0.0226,-0.079 -0.0226,-0.13547 0,-0.22578 0.13547,-0.508 0.33867,-0.69991 0.27094,-0.25964 0.6096,-0.37253 1.10631,-0.37253 0.53058,0 0.85796,0.15804 0.99343,0.45155 0.0339,0.0677 0.0451,0.14676 0.0451,0.24836 0,0.0677 0,0.15804 -0.0113,0.24835 z"
         style="font-style:italic;font-family:'Nimbus Sans';-inkscape-font-specification:'Nimbus Sans Italic'"
         id="path253501" />
      <path
         d="m 186.70936,175.10241 h 3.91725 l 0.19191,-0.92569 h -3.91725 l 0.56444,-2.63032 h 4.45912 l 0.19191,-0.92569 h -5.52027 l -1.74978,8.22961 h 1.06116 z"
         style="font-style:italic;font-family:'Nimbus Sans';-inkscape-font-specification:'Nimbus Sans Italic'"
         id="path253503" />
      <path
         d="m 196.45168,178.27459 c -0.1016,0.0226 -0.14676,0.0226 -0.19191,0.0226 -0.23707,0 -0.38383,-0.079 -0.41769,-0.21448 -0.0113,-0.0339 -0.0113,-0.0677 -0.0113,-0.11289 0,-0.0339 0,-0.079 0.0113,-0.11289 l 0.72249,-3.39796 c 0.0677,-0.3048 0.0677,-0.3048 0.0677,-0.41769 0,-0.55316 -0.46284,-1.02729 -1.14018,-1.18534 -0.25964,-0.0564 -0.54186,-0.0903 -0.82409,-0.0903 -1.58044,0 -2.52871,0.66605 -2.7432,1.91912 h 0.94827 c 0.1016,-0.31609 0.18062,-0.47414 0.33866,-0.63218 0.24836,-0.25965 0.72249,-0.41769 1.20792,-0.41769 0.508,0 0.93698,0.16933 1.1176,0.45155 0.0564,0.079 0.079,0.16934 0.079,0.27094 0,0.0452 -0.0113,0.12418 -0.0226,0.21449 l -0.0339,0.2032 c -0.079,0.44026 -0.32738,0.59831 -1.14018,0.66604 -1.12889,0.1016 -1.6256,0.18062 -2.03201,0.33867 -0.73377,0.28222 -1.20791,0.77893 -1.37724,1.43369 -0.0339,0.14676 -0.0565,0.3048 -0.0565,0.45156 0,0.64346 0.31609,1.12889 0.86925,1.3208 0.22578,0.079 0.48542,0.12417 0.74507,0.12417 0.41769,0 0.86924,-0.079 1.28693,-0.22577 0.34996,-0.12418 0.53058,-0.23707 0.99342,-0.64347 v 0.079 0.0452 c 0,0.32738 0.16934,0.58702 0.44027,0.67733 0.12418,0.0452 0.27094,0.0677 0.41769,0.0677 0.13547,0 0.16933,0 0.44027,-0.0677 0.0339,-0.0113 0.0903,-0.0226 0.15804,-0.0339 z m -1.36596,-1.27565 c -0.14675,0.69991 -1.14018,1.29822 -2.1336,1.29822 -0.39511,0 -0.68862,-0.1016 -0.84667,-0.28222 -0.1016,-0.12418 -0.15804,-0.28222 -0.15804,-0.46284 0,-0.37254 0.21449,-0.74507 0.55315,-0.94827 0.27094,-0.16933 0.59832,-0.25965 1.16276,-0.33867 1.14018,-0.15804 1.15147,-0.15804 1.64818,-0.32738 z"
         style="font-style:italic;font-family:'Nimbus Sans';-inkscape-font-specification:'Nimbus Sans Italic'"
         id="path253505" />
      <path
         d="m 199.96252,170.62071 h -0.94826 l -1.74978,8.22961 h 0.94826 z"
         style="font-style:italic;font-family:'Nimbus Sans';-inkscape-font-specification:'Nimbus Sans Italic'"
         id="path253507" />
      <path
         d="m 204.80546,174.58312 c 0.0564,-0.23707 0.0677,-0.33867 0.0677,-0.48543 0,-0.79022 -0.74507,-1.33209 -1.85138,-1.33209 -0.80151,0 -1.49014,0.23707 -1.95298,0.67734 -0.41769,0.39511 -0.67734,0.98213 -0.67734,1.51271 0,0.68862 0.39512,1.016 1.55787,1.3208 l 0.83538,0.21449 c 0.37253,0.1016 0.54187,0.16933 0.64347,0.29351 0.079,0.1016 0.14675,0.27094 0.14675,0.37254 0,0.13546 -0.11289,0.41768 -0.21449,0.55315 -0.18062,0.22578 -0.51929,0.4064 -0.92569,0.48542 -0.15804,0.0339 -0.31608,0.0452 -0.47413,0.0452 -0.67733,0 -1.07244,-0.21449 -1.18533,-0.63218 -0.0226,-0.079 -0.0339,-0.15804 -0.0339,-0.23707 0,-0.0677 0.0113,-0.16933 0.0226,-0.28222 h -1.00471 c -0.0565,0.25965 -0.0677,0.39511 -0.0677,0.57574 0,0.67733 0.46285,1.17404 1.25307,1.35466 0.27093,0.0564 0.55316,0.0903 0.84667,0.0903 1.68204,0 2.77707,-0.86924 2.77707,-2.21262 0,-0.68862 -0.37254,-1.04987 -1.36596,-1.29822 l -0.85796,-0.21449 c -0.53058,-0.13547 -0.84666,-0.31609 -0.93698,-0.54187 -0.0113,-0.0339 -0.0226,-0.079 -0.0226,-0.13547 0,-0.22577 0.13546,-0.508 0.33866,-0.69991 0.27094,-0.25964 0.6096,-0.37253 1.10632,-0.37253 0.53057,0 0.85795,0.15804 0.99342,0.45155 0.0339,0.0677 0.0452,0.14676 0.0452,0.24836 0,0.0677 0,0.15804 -0.0113,0.24836 z"
         style="font-style:italic;font-family:'Nimbus Sans';-inkscape-font-specification:'Nimbus Sans Italic'"
         id="path253509" />
      <path
         d="m 211.00307,176.20872 c 0.15804,-0.88054 0.19191,-1.15147 0.19191,-1.51272 0,-1.09502 -0.93698,-1.9304 -2.15618,-1.9304 -0.98213,0 -1.91911,0.46285 -2.49485,1.2192 -0.53057,0.7112 -0.94826,1.98685 -0.94826,2.91254 0,0.6096 0.27093,1.23049 0.69991,1.64818 0.39511,0.38382 0.89182,0.56444 1.53529,0.56444 1.35467,0 2.51742,-0.83537 2.86738,-2.05457 H 209.75 c -0.4064,0.77893 -1.00471,1.18533 -1.76107,1.18533 -0.89182,0 -1.39982,-0.55316 -1.39982,-1.51271 0,-0.24836 0.0113,-0.34996 0.0564,-0.51929 z m -4.15432,-0.8128 c 0.29352,-1.03858 1.12889,-1.76107 2.0433,-1.76107 0.68862,0 1.14017,0.37253 1.27564,1.04987 0.0226,0.11289 0.0339,0.22577 0.0339,0.33866 0,0.1016 -0.0113,0.19191 -0.0339,0.37254 z"
         style="font-style:italic;font-family:'Nimbus Sans';-inkscape-font-specification:'Nimbus Sans Italic'"
         id="path253511" />
      <path
         d="m 214.14138,181.25486 h 0.94827 l 0.67733,-3.17218 c 0.25965,0.55315 0.54187,0.82408 1.016,0.94826 0.19191,0.0565 0.38382,0.079 0.59831,0.079 0.88054,0 1.72721,-0.4064 2.30294,-1.10631 0.6096,-0.75635 0.99342,-1.91911 0.99342,-3.03671 0,-1.35467 -0.75635,-2.20134 -1.96427,-2.20134 -0.88053,0 -1.78364,0.48543 -2.08844,1.1176 l 0.2032,-0.94826 h -0.9144 z m 4.19947,-7.62001 c 0.55316,0 0.97085,0.24835 1.17405,0.69991 0.11288,0.25964 0.16933,0.53058 0.16933,0.85796 0,0.49671 -0.12418,1.06115 -0.33867,1.58044 -0.28222,0.65476 -0.65475,1.08374 -1.12889,1.30952 -0.23706,0.11288 -0.47413,0.15804 -0.74507,0.15804 -0.83537,0 -1.34337,-0.56445 -1.34337,-1.46756 0,-1.28693 0.64346,-2.57387 1.49013,-2.98027 0.22578,-0.11289 0.45156,-0.15804 0.72249,-0.15804 z"
         style="font-style:italic;font-family:'Nimbus Sans';-inkscape-font-specification:'Nimbus Sans Italic'"
         id="path253513" />
      <path
         d="m 224.67392,172.7656 c -1.70462,0 -2.8448,1.09503 -3.30765,3.17218 -0.079,0.37254 -0.12418,0.72249 -0.12418,1.06116 0,1.25307 0.86925,2.11102 2.13361,2.11102 1.08373,0 1.94169,-0.44026 2.57387,-1.30951 0.51928,-0.7112 0.89182,-1.94169 0.89182,-2.92382 0,-0.84667 -0.44027,-1.60303 -1.12889,-1.90783 -0.31609,-0.13546 -0.63218,-0.2032 -1.03858,-0.2032 z m -0.14676,0.86925 c 0.57574,0 1.03858,0.29351 1.20792,0.75635 0.079,0.21449 0.11289,0.42898 0.11289,0.69992 0,1.28693 -0.59832,2.51742 -1.44498,2.9464 -0.27094,0.13547 -0.54187,0.2032 -0.86925,0.2032 -0.55316,0 -0.99342,-0.28222 -1.17405,-0.75636 -0.079,-0.22577 -0.12417,-0.46284 -0.12417,-0.7112 0,-0.53058 0.12417,-1.10631 0.33866,-1.63689 0.25965,-0.62089 0.62089,-1.03858 1.11761,-1.29822 0.27093,-0.13547 0.53057,-0.2032 0.83537,-0.2032 z"
         style="font-style:italic;font-family:'Nimbus Sans';-inkscape-font-specification:'Nimbus Sans Italic'"
         id="path253515" />
      <path
         d="m 232.4181,174.58312 c 0.0564,-0.23707 0.0677,-0.33867 0.0677,-0.48543 0,-0.79022 -0.74507,-1.33209 -1.85138,-1.33209 -0.80152,0 -1.49014,0.23707 -1.95298,0.67734 -0.41769,0.39511 -0.67734,0.98213 -0.67734,1.51271 0,0.68862 0.39511,1.016 1.55787,1.3208 l 0.83538,0.21449 c 0.37253,0.1016 0.54187,0.16933 0.64347,0.29351 0.079,0.1016 0.14675,0.27094 0.14675,0.37254 0,0.13546 -0.11289,0.41768 -0.21449,0.55315 -0.18062,0.22578 -0.51929,0.4064 -0.92569,0.48542 -0.15804,0.0339 -0.31609,0.0452 -0.47413,0.0452 -0.67733,0 -1.07245,-0.21449 -1.18533,-0.63218 -0.0226,-0.079 -0.0339,-0.15804 -0.0339,-0.23707 0,-0.0677 0.0113,-0.16933 0.0226,-0.28222 h -1.00472 c -0.0564,0.25965 -0.0677,0.39511 -0.0677,0.57574 0,0.67733 0.46285,1.17404 1.25307,1.35466 0.27093,0.0564 0.55316,0.0903 0.84667,0.0903 1.68204,0 2.77707,-0.86924 2.77707,-2.21262 0,-0.68862 -0.37254,-1.04987 -1.36596,-1.29822 l -0.85796,-0.21449 c -0.53058,-0.13547 -0.84666,-0.31609 -0.93698,-0.54187 -0.0113,-0.0339 -0.0226,-0.079 -0.0226,-0.13547 0,-0.22577 0.13546,-0.508 0.33866,-0.69991 0.27094,-0.25964 0.6096,-0.37253 1.10632,-0.37253 0.53057,0 0.85795,0.15804 0.99342,0.45155 0.0339,0.0677 0.0452,0.14676 0.0452,0.24836 0,0.0677 0,0.15804 -0.0113,0.24836 z"
         style="font-style:italic;font-family:'Nimbus Sans';-inkscape-font-specification:'Nimbus Sans Italic'"
         id="path253517" />
      <path
         d="m 235.20646,172.93494 h -0.94827 l -1.25306,5.91538 h 0.94826 z m 0.49671,-2.31423 h -0.94826 l -0.24836,1.16276 h 0.94827 z"
         style="font-style:italic;font-family:'Nimbus Sans';-inkscape-font-specification:'Nimbus Sans Italic'"
         id="path253519" />
      <path
         d="m 238.89793,172.93494 h -1.00471 l 0.34996,-1.62561 h -0.94827 l -0.34996,1.62561 h -0.80151 l -0.15804,0.75635 h 0.80151 l -0.89182,4.1769 c -0.0226,0.11288 -0.0339,0.23706 -0.0339,0.34995 0,0.45156 0.19191,0.7112 0.63218,0.83538 0.12418,0.0339 0.24835,0.0564 0.37253,0.0564 0.23707,0 0.56445,-0.0339 0.73378,-0.079 l 0.18062,-0.82409 c -0.37253,0.0903 -0.39511,0.0903 -0.54186,0.0903 -0.21449,0 -0.34996,-0.079 -0.39512,-0.22577 -0.0113,-0.0339 -0.0113,-0.0452 -0.0113,-0.079 0,-0.0339 0.0113,-0.0903 0.0226,-0.15804 l 0.88054,-4.14303 h 1.00471 z"
         style="font-style:italic;font-family:'Nimbus Sans';-inkscape-font-specification:'Nimbus Sans Italic'"
         id="path253521" />
      <path
         d="m 240.78317,172.93494 h -0.94827 l -1.25306,5.91538 h 0.94826 z m 0.49671,-2.31423 h -0.94826 l -0.24836,1.16276 h 0.94827 z"
         style="font-style:italic;font-family:'Nimbus Sans';-inkscape-font-specification:'Nimbus Sans Italic'"
         id="path253523" />
      <path
         d="m 243.43606,178.85032 3.51085,-5.91538 h -1.02729 l -2.7545,4.76391 -0.55315,-4.76391 h -1.03858 l 0.83538,5.91538 z"
         style="font-style:italic;font-family:'Nimbus Sans';-inkscape-font-specification:'Nimbus Sans Italic'"
         id="path253525" />
      <path
         d="m 251.93659,176.20872 c 0.15805,-0.88054 0.19192,-1.15147 0.19192,-1.51272 0,-1.09502 -0.93698,-1.9304 -2.15618,-1.9304 -0.98214,0 -1.91912,0.46285 -2.49485,1.2192 -0.53058,0.7112 -0.94827,1.98685 -0.94827,2.91254 0,0.6096 0.27094,1.23049 0.69991,1.64818 0.39512,0.38382 0.89183,0.56444 1.53529,0.56444 1.35467,0 2.51743,-0.83537 2.86738,-2.05457 h -0.94826 c -0.4064,0.77893 -1.00472,1.18533 -1.76107,1.18533 -0.89182,0 -1.39983,-0.55316 -1.39983,-1.51271 0,-0.24836 0.0113,-0.34996 0.0565,-0.51929 z m -4.15431,-0.8128 c 0.29351,-1.03858 1.12889,-1.76107 2.04329,-1.76107 0.68862,0 1.14018,0.37253 1.27565,1.04987 0.0226,0.11289 0.0339,0.22577 0.0339,0.33866 0,0.1016 -0.0113,0.19191 -0.0339,0.37254 z"
         style="font-style:italic;font-family:'Nimbus Sans';-inkscape-font-specification:'Nimbus Sans Italic'"
         id="path253527" />
      <path
         d="m 257.62619,174.58312 c 0.0564,-0.23707 0.0677,-0.33867 0.0677,-0.48543 0,-0.79022 -0.74507,-1.33209 -1.85138,-1.33209 -0.80151,0 -1.49014,0.23707 -1.95298,0.67734 -0.41769,0.39511 -0.67734,0.98213 -0.67734,1.51271 0,0.68862 0.39512,1.016 1.55787,1.3208 l 0.83538,0.21449 c 0.37254,0.1016 0.54187,0.16933 0.64347,0.29351 0.079,0.1016 0.14675,0.27094 0.14675,0.37254 0,0.13546 -0.11288,0.41768 -0.21448,0.55315 -0.18063,0.22578 -0.51929,0.4064 -0.92569,0.48542 -0.15805,0.0339 -0.31609,0.0452 -0.47414,0.0452 -0.67733,0 -1.07244,-0.21449 -1.18533,-0.63218 -0.0226,-0.079 -0.0339,-0.15804 -0.0339,-0.23707 0,-0.0677 0.0113,-0.16933 0.0226,-0.28222 h -1.00471 c -0.0565,0.25965 -0.0677,0.39511 -0.0677,0.57574 0,0.67733 0.46285,1.17404 1.25307,1.35466 0.27093,0.0564 0.55316,0.0903 0.84667,0.0903 1.68204,0 2.77707,-0.86924 2.77707,-2.21262 0,-0.68862 -0.37254,-1.04987 -1.36596,-1.29822 l -0.85796,-0.21449 c -0.53057,-0.13547 -0.84666,-0.31609 -0.93697,-0.54187 -0.0113,-0.0339 -0.0226,-0.079 -0.0226,-0.13547 0,-0.22577 0.13546,-0.508 0.33866,-0.69991 0.27094,-0.25964 0.60961,-0.37253 1.10632,-0.37253 0.53058,0 0.85795,0.15804 0.99342,0.45155 0.0339,0.0677 0.0452,0.14676 0.0452,0.24836 0,0.0677 0,0.15804 -0.0113,0.24836 z"
         style="font-style:italic;font-family:'Nimbus Sans';-inkscape-font-specification:'Nimbus Sans Italic'"
         id="path253529" />
      <path
         d="m 264.07215,170.62071 h -0.94826 l -1.74978,8.22961 h 0.94826 z"
         style="font-style:italic;font-family:'Nimbus Sans';-inkscape-font-specification:'Nimbus Sans Italic'"
         id="path253531" />
      <path
         d="m 266.05901,172.93494 h -0.94827 l -1.25307,5.91538 h 0.94827 z m 0.49671,-2.31423 h -0.94827 l -0.24836,1.16276 h 0.94827 z"
         style="font-style:italic;font-family:'Nimbus Sans';-inkscape-font-specification:'Nimbus Sans Italic'"
         id="path253533" />
      <path
         d="m 268.97154,170.62071 h -0.94827 l -1.74978,8.22961 h 0.94827 l 0.48542,-2.29165 1.20792,-0.99342 1.28693,3.28507 h 1.08373 l -1.58044,-3.87209 2.50613,-2.04329 h -1.2192 l -3.03671,2.46098 z"
         style="font-style:italic;font-family:'Nimbus Sans';-inkscape-font-specification:'Nimbus Sans Italic'"
         id="path253535" />
      <path
         d="m 277.38177,176.20872 c 0.15805,-0.88054 0.19192,-1.15147 0.19192,-1.51272 0,-1.09502 -0.93698,-1.9304 -2.15618,-1.9304 -0.98214,0 -1.91912,0.46285 -2.49485,1.2192 -0.53058,0.7112 -0.94827,1.98685 -0.94827,2.91254 0,0.6096 0.27093,1.23049 0.69991,1.64818 0.39511,0.38382 0.89183,0.56444 1.53529,0.56444 1.35467,0 2.51743,-0.83537 2.86738,-2.05457 h -0.94826 c -0.4064,0.77893 -1.00472,1.18533 -1.76107,1.18533 -0.89183,0 -1.39983,-0.55316 -1.39983,-1.51271 0,-0.24836 0.0113,-0.34996 0.0565,-0.51929 z m -4.15431,-0.8128 c 0.29351,-1.03858 1.12889,-1.76107 2.04329,-1.76107 0.68862,0 1.14018,0.37253 1.27565,1.04987 0.0226,0.11289 0.0339,0.22577 0.0339,0.33866 0,0.1016 -0.0113,0.19191 -0.0339,0.37254 z"
         style="font-style:italic;font-family:'Nimbus Sans';-inkscape-font-specification:'Nimbus Sans Italic'"
         id="path253537" />
      <path
         d="m 280.73457,170.62071 h -0.94827 l -1.74978,8.22961 h 0.94827 z"
         style="font-style:italic;font-family:'Nimbus Sans';-inkscape-font-specification:'Nimbus Sans Italic'"
         id="path253539" />
      <path
         d="m 285.25012,172.93494 -2.63031,4.59458 -0.51929,-4.59458 h -1.016 l 0.76764,5.96054 -0.58702,0.9144 c -0.24836,0.39511 -0.33867,0.46284 -0.58702,0.54186 -0.1016,0.0339 -0.21449,0.0452 -0.32738,0.0452 -0.11289,0 -0.15805,0 -0.48542,-0.0452 l -0.18063,0.84667 c 0.12418,0.0565 0.19192,0.0677 0.28223,0.0903 0.079,0.0113 0.16933,0.0226 0.27093,0.0226 0.80151,0 1.37725,-0.37253 1.86267,-1.2192 l 4.15431,-7.15716 z"
         style="font-style:italic;font-family:'Nimbus Sans';-inkscape-font-specification:'Nimbus Sans Italic'"
         id="path253541" />
    </g>
    <path
       style="opacity:1;fill:none;fill-opacity:1;stroke:#000000;stroke-width:1.5;stroke-linecap:butt;stroke-linejoin:miter;stroke-miterlimit:4;stroke-dasharray:none;stroke-dashoffset:0;stroke-opacity:1"
       d="m 125.46935,259.02863 11.82899,-11.82899 h 43.54835"
       id="path245964" />
    <g
       aria-label="Less aggressive rules
False positives rare"
       id="text251435"
       style="font-size:11.2889px;line-height:1.25;font-family:'Museo Sans Rounded';-inkscape-font-specification:'Museo Sans Rounded';letter-spacing:0px;word-spacing:0px;stroke-width:0.264583">
      <path
         d="m 187.54474,234.61472 h -1.06116 l -1.74978,8.22961 h 5.12516 l 0.19191,-0.92569 h -4.064 z"
         style="font-style:italic;font-family:'Nimbus Sans';-inkscape-font-specification:'Nimbus Sans Italic'"
         id="path253562" />
      <path
         d="m 196.16946,240.20273 c 0.15805,-0.88054 0.19192,-1.15147 0.19192,-1.51272 0,-1.09502 -0.93698,-1.9304 -2.15618,-1.9304 -0.98214,0 -1.91912,0.46285 -2.49485,1.2192 -0.53058,0.7112 -0.94827,1.98685 -0.94827,2.91254 0,0.6096 0.27093,1.23049 0.69991,1.64818 0.39511,0.38382 0.89183,0.56444 1.53529,0.56444 1.35467,0 2.51743,-0.83537 2.86738,-2.05458 h -0.94826 c -0.4064,0.77894 -1.00472,1.18534 -1.76107,1.18534 -0.89183,0 -1.39983,-0.55316 -1.39983,-1.51271 0,-0.24836 0.0113,-0.34996 0.0564,-0.51929 z m -4.15431,-0.8128 c 0.29351,-1.03858 1.12889,-1.76107 2.04329,-1.76107 0.68862,0 1.14018,0.37253 1.27565,1.04987 0.0226,0.11288 0.0339,0.22577 0.0339,0.33866 0,0.1016 -0.0113,0.19191 -0.0339,0.37254 z"
         style="font-style:italic;font-family:'Nimbus Sans';-inkscape-font-specification:'Nimbus Sans Italic'"
         id="path253564" />
      <path
         d="m 201.85906,238.57713 c 0.0565,-0.23707 0.0677,-0.33867 0.0677,-0.48543 0,-0.79022 -0.74507,-1.33209 -1.85138,-1.33209 -0.80151,0 -1.49014,0.23707 -1.95298,0.67734 -0.41769,0.39511 -0.67734,0.98213 -0.67734,1.51271 0,0.68862 0.39512,1.016 1.55787,1.3208 l 0.83538,0.21449 c 0.37254,0.1016 0.54187,0.16933 0.64347,0.29351 0.079,0.1016 0.14675,0.27093 0.14675,0.37253 0,0.13547 -0.11288,0.41769 -0.21448,0.55316 -0.18063,0.22578 -0.51929,0.4064 -0.92569,0.48542 -0.15805,0.0339 -0.31609,0.0452 -0.47414,0.0452 -0.67733,0 -1.07244,-0.21449 -1.18533,-0.63218 -0.0226,-0.079 -0.0339,-0.15804 -0.0339,-0.23707 0,-0.0677 0.0113,-0.16933 0.0226,-0.28222 h -1.00471 c -0.0564,0.25965 -0.0677,0.39511 -0.0677,0.57574 0,0.67733 0.46285,1.17404 1.25307,1.35466 0.27093,0.0565 0.55316,0.0903 0.84667,0.0903 1.68204,0 2.77707,-0.86924 2.77707,-2.21262 0,-0.68862 -0.37254,-1.04987 -1.36596,-1.29822 l -0.85796,-0.21449 c -0.53057,-0.13547 -0.84666,-0.31609 -0.93697,-0.54187 -0.0113,-0.0339 -0.0226,-0.079 -0.0226,-0.13547 0,-0.22577 0.13546,-0.508 0.33867,-0.69991 0.27093,-0.25964 0.6096,-0.37253 1.10631,-0.37253 0.53058,0 0.85795,0.15804 0.99342,0.45155 0.0339,0.0677 0.0452,0.14676 0.0452,0.24836 0,0.0677 0,0.15804 -0.0113,0.24836 z"
         style="font-style:italic;font-family:'Nimbus Sans';-inkscape-font-specification:'Nimbus Sans Italic'"
         id="path253566" />
      <path
         d="m 207.44708,238.57713 c 0.0564,-0.23707 0.0677,-0.33867 0.0677,-0.48543 0,-0.79022 -0.74506,-1.33209 -1.85138,-1.33209 -0.80151,0 -1.49013,0.23707 -1.95298,0.67734 -0.41769,0.39511 -0.67733,0.98213 -0.67733,1.51271 0,0.68862 0.39511,1.016 1.55787,1.3208 l 0.83538,0.21449 c 0.37253,0.1016 0.54186,0.16933 0.64346,0.29351 0.079,0.1016 0.14676,0.27093 0.14676,0.37253 0,0.13547 -0.11289,0.41769 -0.21449,0.55316 -0.18062,0.22578 -0.51929,0.4064 -0.92569,0.48542 -0.15804,0.0339 -0.31609,0.0452 -0.47413,0.0452 -0.67734,0 -1.07245,-0.21449 -1.18534,-0.63218 -0.0226,-0.079 -0.0339,-0.15804 -0.0339,-0.23707 0,-0.0677 0.0113,-0.16933 0.0226,-0.28222 h -1.00471 c -0.0564,0.25965 -0.0677,0.39511 -0.0677,0.57574 0,0.67733 0.46284,1.17404 1.25307,1.35466 0.27093,0.0565 0.55315,0.0903 0.84666,0.0903 1.68205,0 2.77707,-0.86924 2.77707,-2.21262 0,-0.68862 -0.37253,-1.04987 -1.36595,-1.29822 l -0.85796,-0.21449 c -0.53058,-0.13547 -0.84667,-0.31609 -0.93698,-0.54187 -0.0113,-0.0339 -0.0226,-0.079 -0.0226,-0.13547 0,-0.22577 0.13547,-0.508 0.33867,-0.69991 0.27093,-0.25964 0.6096,-0.37253 1.10631,-0.37253 0.53058,0 0.85796,0.15804 0.99343,0.45155 0.0339,0.0677 0.0452,0.14676 0.0452,0.24836 0,0.0677 0,0.15804 -0.0113,0.24836 z"
         style="font-style:italic;font-family:'Nimbus Sans';-inkscape-font-specification:'Nimbus Sans Italic'"
         id="path253568" />
      <path
         d="m 216.65882,242.2686 c -0.1016,0.0226 -0.14676,0.0226 -0.19191,0.0226 -0.23707,0 -0.38382,-0.079 -0.41769,-0.21449 -0.0113,-0.0339 -0.0113,-0.0677 -0.0113,-0.11288 0,-0.0339 0,-0.079 0.0113,-0.11289 l 0.72249,-3.39796 c 0.0677,-0.3048 0.0677,-0.3048 0.0677,-0.41769 0,-0.55316 -0.46284,-1.02729 -1.14018,-1.18534 -0.25964,-0.0564 -0.54186,-0.0903 -0.82409,-0.0903 -1.58044,0 -2.52871,0.66605 -2.7432,1.91912 h 0.94827 c 0.1016,-0.31609 0.18062,-0.47414 0.33867,-0.63218 0.24835,-0.25965 0.72249,-0.41769 1.20791,-0.41769 0.508,0 0.93698,0.16933 1.1176,0.45155 0.0564,0.079 0.079,0.16934 0.079,0.27094 0,0.0452 -0.0113,0.12418 -0.0226,0.21449 l -0.0339,0.2032 c -0.079,0.44026 -0.32738,0.59831 -1.14018,0.66604 -1.12889,0.1016 -1.6256,0.18062 -2.032,0.33867 -0.73378,0.28222 -1.20792,0.77893 -1.37725,1.43369 -0.0339,0.14675 -0.0564,0.3048 -0.0564,0.45156 0,0.64346 0.31608,1.12889 0.86924,1.3208 0.22578,0.079 0.48542,0.12417 0.74507,0.12417 0.41769,0 0.86924,-0.079 1.28693,-0.22577 0.34996,-0.12418 0.53058,-0.23707 0.99343,-0.64347 v 0.079 0.0452 c 0,0.32738 0.16933,0.58702 0.44026,0.67733 0.12418,0.0452 0.27094,0.0677 0.41769,0.0677 0.13547,0 0.16934,0 0.44027,-0.0677 0.0339,-0.0113 0.0903,-0.0226 0.15804,-0.0339 z m -1.36596,-1.27565 c -0.14675,0.69991 -1.14018,1.29822 -2.1336,1.29822 -0.39511,0 -0.68862,-0.1016 -0.84667,-0.28222 -0.1016,-0.12418 -0.15804,-0.28222 -0.15804,-0.46284 0,-0.37254 0.21449,-0.74507 0.55316,-0.94827 0.27093,-0.16933 0.59831,-0.25965 1.16275,-0.33867 1.14018,-0.15804 1.15147,-0.15804 1.64818,-0.32738 z"
         style="font-style:italic;font-family:'Nimbus Sans';-inkscape-font-specification:'Nimbus Sans Italic'"
         id="path253570" />
      <path
         d="m 222.65324,236.92895 -0.19192,0.88053 c -0.24835,-0.53058 -0.53057,-0.80151 -1.00471,-0.95956 -0.18062,-0.0564 -0.37253,-0.0903 -0.56444,-0.0903 -0.86925,0 -1.74978,0.42898 -2.30294,1.12889 -0.6096,0.75636 -1.02729,2.00943 -1.02729,3.05929 0,0.88054 0.39511,1.56916 1.08374,1.89654 0.27093,0.12418 0.56444,0.19191 0.86924,0.19191 0.7112,0 1.36596,-0.3048 1.94169,-0.90311 l -0.0452,0.21449 c -0.32738,1.53529 -0.92569,2.14489 -2.13361,2.14489 -0.76764,0 -1.2192,-0.3048 -1.2192,-0.8128 v -0.0677 -0.0903 h -0.94826 c -0.0113,0.2032 -0.0226,0.31609 -0.0226,0.34996 0,0.6096 0.45155,1.14018 1.10631,1.3208 0.27093,0.079 0.57573,0.11289 0.89182,0.11289 0.90311,0 1.69334,-0.27093 2.20134,-0.75636 0.56444,-0.54186 0.86924,-1.23049 1.17404,-2.66418 l 1.04987,-4.95582 z m -1.82881,0.69991 c 0.47414,0 0.90312,0.28222 1.07245,0.68862 0.079,0.21449 0.12418,0.42898 0.12418,0.69991 0,0.69991 -0.2032,1.524 -0.51929,2.08845 -0.37254,0.68862 -1.03858,1.1176 -1.71592,1.1176 -0.75635,0 -1.23049,-0.55316 -1.23049,-1.45627 0,-0.56444 0.11289,-1.1176 0.34996,-1.65947 0.27093,-0.63217 0.6096,-1.016 1.09502,-1.27564 0.28223,-0.14676 0.508,-0.2032 0.82409,-0.2032 z"
         style="font-style:italic;font-family:'Nimbus Sans';-inkscape-font-specification:'Nimbus Sans Italic'"
         id="path253572" />
      <path
         d="m 228.97501,236.92895 -0.19191,0.88053 c -0.24835,-0.53058 -0.53058,-0.80151 -1.00471,-0.95956 -0.18062,-0.0564 -0.37253,-0.0903 -0.56445,-0.0903 -0.86924,0 -1.74978,0.42898 -2.30293,1.12889 -0.6096,0.75636 -1.02729,2.00943 -1.02729,3.05929 0,0.88054 0.39511,1.56916 1.08373,1.89654 0.27094,0.12418 0.56445,0.19191 0.86925,0.19191 0.7112,0 1.36596,-0.3048 1.94169,-0.90311 l -0.0452,0.21449 c -0.32737,1.53529 -0.92569,2.14489 -2.1336,2.14489 -0.76764,0 -1.2192,-0.3048 -1.2192,-0.8128 v -0.0677 -0.0903 h -0.94827 c -0.0113,0.2032 -0.0226,0.31609 -0.0226,0.34996 0,0.6096 0.45156,1.14018 1.10632,1.3208 0.27093,0.079 0.57573,0.11289 0.89182,0.11289 0.90311,0 1.69334,-0.27093 2.20134,-0.75636 0.56444,-0.54186 0.86924,-1.23049 1.17404,-2.66418 l 1.04987,-4.95582 z m -1.8288,0.69991 c 0.47413,0 0.90311,0.28222 1.07245,0.68862 0.079,0.21449 0.12417,0.42898 0.12417,0.69991 0,0.69991 -0.2032,1.524 -0.51929,2.08845 -0.37253,0.68862 -1.03857,1.1176 -1.71591,1.1176 -0.75635,0 -1.23049,-0.55316 -1.23049,-1.45627 0,-0.56444 0.11289,-1.1176 0.34996,-1.65947 0.27093,-0.63217 0.6096,-1.016 1.09502,-1.27564 0.28222,-0.14676 0.508,-0.2032 0.82409,-0.2032 z"
         style="font-style:italic;font-family:'Nimbus Sans';-inkscape-font-specification:'Nimbus Sans Italic'"
         id="path253574" />
      <path
         d="m 231.35697,236.92895 -1.25307,5.91538 h 0.94827 l 0.65475,-3.07058 c 0.28223,-1.33209 1.03858,-2.02071 2.22392,-2.02071 h 0.11289 l 0.2032,-0.95956 -0.0677,-0.0113 c -0.1016,-0.0113 -0.19191,-0.0226 -0.29351,-0.0226 -0.65475,0 -1.15147,0.29351 -1.86267,1.09503 l 0.19191,-0.92569 z"
         style="font-style:italic;font-family:'Nimbus Sans';-inkscape-font-specification:'Nimbus Sans Italic'"
         id="path253576" />
      <path
         d="m 239.2705,240.20273 c 0.15804,-0.88054 0.19191,-1.15147 0.19191,-1.51272 0,-1.09502 -0.93698,-1.9304 -2.15618,-1.9304 -0.98214,0 -1.91912,0.46285 -2.49485,1.2192 -0.53058,0.7112 -0.94827,1.98685 -0.94827,2.91254 0,0.6096 0.27094,1.23049 0.69991,1.64818 0.39512,0.38382 0.89183,0.56444 1.53529,0.56444 1.35467,0 2.51743,-0.83537 2.86739,-2.05458 h -0.94827 c -0.4064,0.77894 -1.00471,1.18534 -1.76107,1.18534 -0.89182,0 -1.39982,-0.55316 -1.39982,-1.51271 0,-0.24836 0.0113,-0.34996 0.0564,-0.51929 z m -4.15432,-0.8128 c 0.29351,-1.03858 1.12889,-1.76107 2.04329,-1.76107 0.68862,0 1.14018,0.37253 1.27565,1.04987 0.0226,0.11288 0.0339,0.22577 0.0339,0.33866 0,0.1016 -0.0113,0.19191 -0.0339,0.37254 z"
         style="font-style:italic;font-family:'Nimbus Sans';-inkscape-font-specification:'Nimbus Sans Italic'"
         id="path253578" />
      <path
         d="m 244.9601,238.57713 c 0.0564,-0.23707 0.0677,-0.33867 0.0677,-0.48543 0,-0.79022 -0.74507,-1.33209 -1.85138,-1.33209 -0.80151,0 -1.49014,0.23707 -1.95298,0.67734 -0.41769,0.39511 -0.67733,0.98213 -0.67733,1.51271 0,0.68862 0.39511,1.016 1.55786,1.3208 l 0.83538,0.21449 c 0.37254,0.1016 0.54187,0.16933 0.64347,0.29351 0.079,0.1016 0.14676,0.27093 0.14676,0.37253 0,0.13547 -0.11289,0.41769 -0.21449,0.55316 -0.18063,0.22578 -0.51929,0.4064 -0.92569,0.48542 -0.15805,0.0339 -0.31609,0.0452 -0.47414,0.0452 -0.67733,0 -1.07244,-0.21449 -1.18533,-0.63218 -0.0226,-0.079 -0.0339,-0.15804 -0.0339,-0.23707 0,-0.0677 0.0113,-0.16933 0.0226,-0.28222 h -1.00471 c -0.0565,0.25965 -0.0677,0.39511 -0.0677,0.57574 0,0.67733 0.46285,1.17404 1.25307,1.35466 0.27093,0.0565 0.55316,0.0903 0.84667,0.0903 1.68204,0 2.77707,-0.86924 2.77707,-2.21262 0,-0.68862 -0.37254,-1.04987 -1.36596,-1.29822 l -0.85796,-0.21449 c -0.53057,-0.13547 -0.84666,-0.31609 -0.93697,-0.54187 -0.0113,-0.0339 -0.0226,-0.079 -0.0226,-0.13547 0,-0.22577 0.13547,-0.508 0.33867,-0.69991 0.27093,-0.25964 0.6096,-0.37253 1.10631,-0.37253 0.53058,0 0.85795,0.15804 0.99342,0.45155 0.0339,0.0677 0.0452,0.14676 0.0452,0.24836 0,0.0677 0,0.15804 -0.0113,0.24836 z"
         style="font-style:italic;font-family:'Nimbus Sans';-inkscape-font-specification:'Nimbus Sans Italic'"
         id="path253580" />
      <path
         d="m 250.54811,238.57713 c 0.0564,-0.23707 0.0677,-0.33867 0.0677,-0.48543 0,-0.79022 -0.74507,-1.33209 -1.85138,-1.33209 -0.80152,0 -1.49014,0.23707 -1.95298,0.67734 -0.41769,0.39511 -0.67734,0.98213 -0.67734,1.51271 0,0.68862 0.39511,1.016 1.55787,1.3208 l 0.83538,0.21449 c 0.37253,0.1016 0.54187,0.16933 0.64347,0.29351 0.079,0.1016 0.14675,0.27093 0.14675,0.37253 0,0.13547 -0.11289,0.41769 -0.21449,0.55316 -0.18062,0.22578 -0.51929,0.4064 -0.92569,0.48542 -0.15804,0.0339 -0.31609,0.0452 -0.47413,0.0452 -0.67734,0 -1.07245,-0.21449 -1.18534,-0.63218 -0.0226,-0.079 -0.0339,-0.15804 -0.0339,-0.23707 0,-0.0677 0.0113,-0.16933 0.0226,-0.28222 h -1.00472 c -0.0564,0.25965 -0.0677,0.39511 -0.0677,0.57574 0,0.67733 0.46284,1.17404 1.25307,1.35466 0.27093,0.0565 0.55315,0.0903 0.84667,0.0903 1.68204,0 2.77706,-0.86924 2.77706,-2.21262 0,-0.68862 -0.37253,-1.04987 -1.36595,-1.29822 l -0.85796,-0.21449 c -0.53058,-0.13547 -0.84667,-0.31609 -0.93698,-0.54187 -0.0113,-0.0339 -0.0226,-0.079 -0.0226,-0.13547 0,-0.22577 0.13547,-0.508 0.33867,-0.69991 0.27094,-0.25964 0.6096,-0.37253 1.10631,-0.37253 0.53058,0 0.85796,0.15804 0.99343,0.45155 0.0339,0.0677 0.0452,0.14676 0.0452,0.24836 0,0.0677 0,0.15804 -0.0113,0.24836 z"
         style="font-style:italic;font-family:'Nimbus Sans';-inkscape-font-specification:'Nimbus Sans Italic'"
         id="path253582" />
      <path
         d="m 253.33647,236.92895 h -0.94827 l -1.25306,5.91538 h 0.94826 z m 0.49671,-2.31423 h -0.94826 l -0.24836,1.16276 h 0.94827 z"
         style="font-style:italic;font-family:'Nimbus Sans';-inkscape-font-specification:'Nimbus Sans Italic'"
         id="path253584" />
      <path
         d="m 255.98936,242.84433 3.51085,-5.91538 h -1.02729 l -2.7545,4.76391 -0.55315,-4.76391 h -1.03858 l 0.83538,5.91538 z"
         style="font-style:italic;font-family:'Nimbus Sans';-inkscape-font-specification:'Nimbus Sans Italic'"
         id="path253586" />
      <path
         d="m 264.48989,240.20273 c 0.15804,-0.88054 0.19191,-1.15147 0.19191,-1.51272 0,-1.09502 -0.93698,-1.9304 -2.15618,-1.9304 -0.98213,0 -1.91911,0.46285 -2.49485,1.2192 -0.53057,0.7112 -0.94826,1.98685 -0.94826,2.91254 0,0.6096 0.27093,1.23049 0.69991,1.64818 0.39511,0.38382 0.89182,0.56444 1.53529,0.56444 1.35467,0 2.51742,-0.83537 2.86738,-2.05458 h -0.94827 c -0.4064,0.77894 -1.00471,1.18534 -1.76107,1.18534 -0.89182,0 -1.39982,-0.55316 -1.39982,-1.51271 0,-0.24836 0.0113,-0.34996 0.0564,-0.51929 z m -4.15432,-0.8128 c 0.29352,-1.03858 1.12889,-1.76107 2.0433,-1.76107 0.68862,0 1.14017,0.37253 1.27564,1.04987 0.0226,0.11288 0.0339,0.22577 0.0339,0.33866 0,0.1016 -0.0113,0.19191 -0.0339,0.37254 z"
         style="font-style:italic;font-family:'Nimbus Sans';-inkscape-font-specification:'Nimbus Sans Italic'"
         id="path253588" />
      <path
         d="m 269.58118,236.92895 -1.25307,5.91538 h 0.94827 l 0.65476,-3.07058 c 0.28222,-1.33209 1.03858,-2.02071 2.22391,-2.02071 h 0.11289 l 0.2032,-0.95956 -0.0677,-0.0113 c -0.1016,-0.0113 -0.19192,-0.0226 -0.29352,-0.0226 -0.65475,0 -1.15146,0.29351 -1.86266,1.09503 l 0.19191,-0.92569 z"
         style="font-style:italic;font-family:'Nimbus Sans';-inkscape-font-specification:'Nimbus Sans Italic'"
         id="path253590" />
      <path
         d="m 276.6819,242.84433 1.25307,-5.91538 h -0.94827 l -0.7112,3.3528 c -0.25964,1.2192 -1.04987,2.00942 -2.02071,2.00942 -0.53058,0 -0.89183,-0.23706 -0.98214,-0.65475 -0.0113,-0.0677 -0.0226,-0.14676 -0.0226,-0.21449 0,-0.0903 0.0113,-0.19191 0.0339,-0.3048 l 0.89183,-4.18818 h -0.94827 l -0.97085,4.56071 c -0.0226,0.11289 -0.0339,0.23707 -0.0339,0.38382 0,0.59832 0.37253,1.03858 1.00471,1.17405 0.16933,0.0339 0.36124,0.0564 0.55315,0.0564 0.88054,0 1.52401,-0.27093 2.17876,-0.90311 l -0.13547,0.64347 z"
         style="font-style:italic;font-family:'Nimbus Sans';-inkscape-font-specification:'Nimbus Sans Italic'"
         id="path253592" />
      <path
         d="m 280.97168,234.61472 h -0.94827 l -1.74978,8.22961 h 0.94827 z"
         style="font-style:italic;font-family:'Nimbus Sans';-inkscape-font-specification:'Nimbus Sans Italic'"
         id="path253594" />
      <path
         d="m 286.36777,240.20273 c 0.15805,-0.88054 0.19192,-1.15147 0.19192,-1.51272 0,-1.09502 -0.93698,-1.9304 -2.15618,-1.9304 -0.98214,0 -1.91912,0.46285 -2.49485,1.2192 -0.53058,0.7112 -0.94827,1.98685 -0.94827,2.91254 0,0.6096 0.27093,1.23049 0.69991,1.64818 0.39511,0.38382 0.89183,0.56444 1.53529,0.56444 1.35467,0 2.51743,-0.83537 2.86738,-2.05458 h -0.94826 c -0.4064,0.77894 -1.00472,1.18534 -1.76107,1.18534 -0.89183,0 -1.39983,-0.55316 -1.39983,-1.51271 0,-0.24836 0.0113,-0.34996 0.0565,-0.51929 z m -4.15431,-0.8128 c 0.29351,-1.03858 1.12889,-1.76107 2.04329,-1.76107 0.68862,0 1.14018,0.37253 1.27565,1.04987 0.0226,0.11288 0.0339,0.22577 0.0339,0.33866 0,0.1016 -0.0113,0.19191 -0.0339,0.37254 z"
         style="font-style:italic;font-family:'Nimbus Sans';-inkscape-font-specification:'Nimbus Sans Italic'"
         id="path253596" />
      <path
         d="m 292.05738,238.57713 c 0.0564,-0.23707 0.0677,-0.33867 0.0677,-0.48543 0,-0.79022 -0.74507,-1.33209 -1.85138,-1.33209 -0.80151,0 -1.49013,0.23707 -1.95298,0.67734 -0.41769,0.39511 -0.67733,0.98213 -0.67733,1.51271 0,0.68862 0.39511,1.016 1.55787,1.3208 l 0.83537,0.21449 c 0.37254,0.1016 0.54187,0.16933 0.64347,0.29351 0.079,0.1016 0.14676,0.27093 0.14676,0.37253 0,0.13547 -0.11289,0.41769 -0.21449,0.55316 -0.18062,0.22578 -0.51929,0.4064 -0.92569,0.48542 -0.15805,0.0339 -0.31609,0.0452 -0.47414,0.0452 -0.67733,0 -1.07244,-0.21449 -1.18533,-0.63218 -0.0226,-0.079 -0.0339,-0.15804 -0.0339,-0.23707 0,-0.0677 0.0113,-0.16933 0.0226,-0.28222 h -1.00471 c -0.0564,0.25965 -0.0677,0.39511 -0.0677,0.57574 0,0.67733 0.46284,1.17404 1.25306,1.35466 0.27094,0.0565 0.55316,0.0903 0.84667,0.0903 1.68205,0 2.77707,-0.86924 2.77707,-2.21262 0,-0.68862 -0.37253,-1.04987 -1.36596,-1.29822 l -0.85795,-0.21449 c -0.53058,-0.13547 -0.84667,-0.31609 -0.93698,-0.54187 -0.0113,-0.0339 -0.0226,-0.079 -0.0226,-0.13547 0,-0.22577 0.13547,-0.508 0.33867,-0.69991 0.27093,-0.25964 0.6096,-0.37253 1.10631,-0.37253 0.53058,0 0.85796,0.15804 0.99342,0.45155 0.0339,0.0677 0.0452,0.14676 0.0452,0.24836 0,0.0677 0,0.15804 -0.0113,0.24836 z"
         style="font-style:italic;font-family:'Nimbus Sans';-inkscape-font-specification:'Nimbus Sans Italic'"
         id="path253598" />
      <path
         d="m 186.70936,253.57566 h 3.91725 l 0.19191,-0.92569 h -3.91725 l 0.56444,-2.63032 h 4.45912 l 0.19191,-0.92569 h -5.52027 l -1.74978,8.22961 h 1.06116 z"
         style="font-style:italic;font-family:'Nimbus Sans';-inkscape-font-specification:'Nimbus Sans Italic'"
         id="path253600" />
      <path
         d="m 196.45168,256.74784 c -0.1016,0.0226 -0.14676,0.0226 -0.19191,0.0226 -0.23707,0 -0.38383,-0.079 -0.41769,-0.21449 -0.0113,-0.0339 -0.0113,-0.0677 -0.0113,-0.11289 0,-0.0339 0,-0.079 0.0113,-0.11289 l 0.72249,-3.39796 c 0.0677,-0.3048 0.0677,-0.3048 0.0677,-0.41769 0,-0.55316 -0.46284,-1.02729 -1.14018,-1.18533 -0.25964,-0.0565 -0.54186,-0.0903 -0.82409,-0.0903 -1.58044,0 -2.52871,0.66605 -2.7432,1.91912 h 0.94827 c 0.1016,-0.31609 0.18062,-0.47414 0.33866,-0.63218 0.24836,-0.25965 0.72249,-0.41769 1.20792,-0.41769 0.508,0 0.93698,0.16933 1.1176,0.45156 0.0564,0.079 0.079,0.16933 0.079,0.27093 0,0.0452 -0.0113,0.12418 -0.0226,0.21449 l -0.0339,0.2032 c -0.079,0.44027 -0.32738,0.59831 -1.14018,0.66604 -1.12889,0.1016 -1.6256,0.18063 -2.03201,0.33867 -0.73377,0.28222 -1.20791,0.77893 -1.37724,1.43369 -0.0339,0.14676 -0.0565,0.3048 -0.0565,0.45156 0,0.64346 0.31609,1.12889 0.86925,1.3208 0.22578,0.079 0.48542,0.12418 0.74507,0.12418 0.41769,0 0.86924,-0.079 1.28693,-0.22578 0.34996,-0.12418 0.53058,-0.23707 0.99342,-0.64347 v 0.079 0.0452 c 0,0.32738 0.16934,0.58702 0.44027,0.67733 0.12418,0.0452 0.27094,0.0677 0.41769,0.0677 0.13547,0 0.16933,0 0.44027,-0.0677 0.0339,-0.0113 0.0903,-0.0226 0.15804,-0.0339 z m -1.36596,-1.27565 c -0.14675,0.69991 -1.14018,1.29823 -2.1336,1.29823 -0.39511,0 -0.68862,-0.1016 -0.84667,-0.28223 -0.1016,-0.12417 -0.15804,-0.28222 -0.15804,-0.46284 0,-0.37254 0.21449,-0.74507 0.55315,-0.94827 0.27094,-0.16933 0.59832,-0.25964 1.16276,-0.33867 1.14018,-0.15804 1.15147,-0.15804 1.64818,-0.32737 z"
         style="font-style:italic;font-family:'Nimbus Sans';-inkscape-font-specification:'Nimbus Sans Italic'"
         id="path253602" />
      <path
         d="m 199.96252,249.09396 h -0.94826 l -1.74978,8.22961 h 0.94826 z"
         style="font-style:italic;font-family:'Nimbus Sans';-inkscape-font-specification:'Nimbus Sans Italic'"
         id="path253604" />
      <path
         d="m 204.80546,253.05637 c 0.0564,-0.23707 0.0677,-0.33867 0.0677,-0.48543 0,-0.79022 -0.74507,-1.33209 -1.85138,-1.33209 -0.80151,0 -1.49014,0.23707 -1.95298,0.67734 -0.41769,0.39511 -0.67734,0.98213 -0.67734,1.51271 0,0.68862 0.39512,1.016 1.55787,1.3208 l 0.83538,0.21449 c 0.37253,0.1016 0.54187,0.16933 0.64347,0.29351 0.079,0.1016 0.14675,0.27094 0.14675,0.37254 0,0.13546 -0.11289,0.41769 -0.21449,0.55315 -0.18062,0.22578 -0.51929,0.4064 -0.92569,0.48543 -0.15804,0.0339 -0.31608,0.0452 -0.47413,0.0452 -0.67733,0 -1.07244,-0.21449 -1.18533,-0.63218 -0.0226,-0.079 -0.0339,-0.15804 -0.0339,-0.23706 0,-0.0677 0.0113,-0.16934 0.0226,-0.28223 h -1.00471 c -0.0565,0.25965 -0.0677,0.39511 -0.0677,0.57574 0,0.67733 0.46285,1.17404 1.25307,1.35467 0.27093,0.0564 0.55316,0.0903 0.84667,0.0903 1.68204,0 2.77707,-0.86925 2.77707,-2.21263 0,-0.68862 -0.37254,-1.04987 -1.36596,-1.29822 l -0.85796,-0.21449 c -0.53058,-0.13547 -0.84666,-0.31609 -0.93698,-0.54187 -0.0113,-0.0339 -0.0226,-0.079 -0.0226,-0.13546 0,-0.22578 0.13546,-0.50801 0.33866,-0.69992 0.27094,-0.25964 0.6096,-0.37253 1.10632,-0.37253 0.53057,0 0.85795,0.15804 0.99342,0.45156 0.0339,0.0677 0.0452,0.14675 0.0452,0.24835 0,0.0677 0,0.15805 -0.0113,0.24836 z"
         style="font-style:italic;font-family:'Nimbus Sans';-inkscape-font-specification:'Nimbus Sans Italic'"
         id="path253606" />
      <path
         d="m 211.00307,254.68197 c 0.15804,-0.88054 0.19191,-1.15147 0.19191,-1.51271 0,-1.09503 -0.93698,-1.93041 -2.15618,-1.93041 -0.98213,0 -1.91911,0.46285 -2.49485,1.21921 -0.53057,0.7112 -0.94826,1.98684 -0.94826,2.91253 0,0.6096 0.27093,1.23049 0.69991,1.64818 0.39511,0.38382 0.89182,0.56445 1.53529,0.56445 1.35467,0 2.51742,-0.83538 2.86738,-2.05458 H 209.75 c -0.4064,0.77893 -1.00471,1.18533 -1.76107,1.18533 -0.89182,0 -1.39982,-0.55316 -1.39982,-1.51271 0,-0.24836 0.0113,-0.34996 0.0564,-0.51929 z m -4.15432,-0.8128 c 0.29352,-1.03858 1.12889,-1.76107 2.0433,-1.76107 0.68862,0 1.14017,0.37253 1.27564,1.04987 0.0226,0.11289 0.0339,0.22578 0.0339,0.33866 0,0.1016 -0.0113,0.19192 -0.0339,0.37254 z"
         style="font-style:italic;font-family:'Nimbus Sans';-inkscape-font-specification:'Nimbus Sans Italic'"
         id="path253608" />
      <path
         d="m 214.14138,259.72811 h 0.94827 l 0.67733,-3.17218 c 0.25965,0.55315 0.54187,0.82409 1.016,0.94826 0.19191,0.0564 0.38382,0.079 0.59831,0.079 0.88054,0 1.72721,-0.4064 2.30294,-1.10632 0.6096,-0.75635 0.99342,-1.91911 0.99342,-3.03671 0,-1.35467 -0.75635,-2.20134 -1.96427,-2.20134 -0.88053,0 -1.78364,0.48543 -2.08844,1.11761 l 0.2032,-0.94827 h -0.9144 z m 4.19947,-7.62001 c 0.55316,0 0.97085,0.24836 1.17405,0.69991 0.11288,0.25965 0.16933,0.53058 0.16933,0.85796 0,0.49671 -0.12418,1.06115 -0.33867,1.58044 -0.28222,0.65476 -0.65475,1.08374 -1.12889,1.30952 -0.23706,0.11289 -0.47413,0.15804 -0.74507,0.15804 -0.83537,0 -1.34337,-0.56444 -1.34337,-1.46756 0,-1.28693 0.64346,-2.57387 1.49013,-2.98027 0.22578,-0.11288 0.45156,-0.15804 0.72249,-0.15804 z"
         style="font-style:italic;font-family:'Nimbus Sans';-inkscape-font-specification:'Nimbus Sans Italic'"
         id="path253610" />
      <path
         d="m 224.67392,251.23885 c -1.70462,0 -2.8448,1.09503 -3.30765,3.17219 -0.079,0.37253 -0.12418,0.72248 -0.12418,1.06115 0,1.25307 0.86925,2.11103 2.13361,2.11103 1.08373,0 1.94169,-0.44027 2.57387,-1.30952 0.51928,-0.7112 0.89182,-1.94169 0.89182,-2.92382 0,-0.84667 -0.44027,-1.60303 -1.12889,-1.90783 -0.31609,-0.13546 -0.63218,-0.2032 -1.03858,-0.2032 z m -0.14676,0.86925 c 0.57574,0 1.03858,0.29351 1.20792,0.75636 0.079,0.21449 0.11289,0.42897 0.11289,0.69991 0,1.28693 -0.59832,2.51742 -1.44498,2.9464 -0.27094,0.13547 -0.54187,0.2032 -0.86925,0.2032 -0.55316,0 -0.99342,-0.28222 -1.17405,-0.75636 -0.079,-0.22577 -0.12417,-0.46284 -0.12417,-0.7112 0,-0.53057 0.12417,-1.10631 0.33866,-1.63689 0.25965,-0.62089 0.62089,-1.03858 1.11761,-1.29822 0.27093,-0.13547 0.53057,-0.2032 0.83537,-0.2032 z"
         style="font-style:italic;font-family:'Nimbus Sans';-inkscape-font-specification:'Nimbus Sans Italic'"
         id="path253612" />
      <path
         d="m 232.4181,253.05637 c 0.0564,-0.23707 0.0677,-0.33867 0.0677,-0.48543 0,-0.79022 -0.74507,-1.33209 -1.85138,-1.33209 -0.80152,0 -1.49014,0.23707 -1.95298,0.67734 -0.41769,0.39511 -0.67734,0.98213 -0.67734,1.51271 0,0.68862 0.39511,1.016 1.55787,1.3208 l 0.83538,0.21449 c 0.37253,0.1016 0.54187,0.16933 0.64347,0.29351 0.079,0.1016 0.14675,0.27094 0.14675,0.37254 0,0.13546 -0.11289,0.41769 -0.21449,0.55315 -0.18062,0.22578 -0.51929,0.4064 -0.92569,0.48543 -0.15804,0.0339 -0.31609,0.0452 -0.47413,0.0452 -0.67733,0 -1.07245,-0.21449 -1.18533,-0.63218 -0.0226,-0.079 -0.0339,-0.15804 -0.0339,-0.23706 0,-0.0677 0.0113,-0.16934 0.0226,-0.28223 h -1.00472 c -0.0564,0.25965 -0.0677,0.39511 -0.0677,0.57574 0,0.67733 0.46285,1.17404 1.25307,1.35467 0.27093,0.0564 0.55316,0.0903 0.84667,0.0903 1.68204,0 2.77707,-0.86925 2.77707,-2.21263 0,-0.68862 -0.37254,-1.04987 -1.36596,-1.29822 l -0.85796,-0.21449 c -0.53058,-0.13547 -0.84666,-0.31609 -0.93698,-0.54187 -0.0113,-0.0339 -0.0226,-0.079 -0.0226,-0.13546 0,-0.22578 0.13546,-0.50801 0.33866,-0.69992 0.27094,-0.25964 0.6096,-0.37253 1.10632,-0.37253 0.53057,0 0.85795,0.15804 0.99342,0.45156 0.0339,0.0677 0.0452,0.14675 0.0452,0.24835 0,0.0677 0,0.15805 -0.0113,0.24836 z"
         style="font-style:italic;font-family:'Nimbus Sans';-inkscape-font-specification:'Nimbus Sans Italic'"
         id="path253614" />
      <path
         d="m 235.20646,251.40819 h -0.94827 l -1.25306,5.91538 h 0.94826 z m 0.49671,-2.31423 h -0.94826 l -0.24836,1.16276 h 0.94827 z"
         style="font-style:italic;font-family:'Nimbus Sans';-inkscape-font-specification:'Nimbus Sans Italic'"
         id="path253616" />
      <path
         d="m 238.89793,251.40819 h -1.00471 l 0.34996,-1.6256 h -0.94827 l -0.34996,1.6256 h -0.80151 l -0.15804,0.75635 h 0.80151 l -0.89182,4.1769 c -0.0226,0.11289 -0.0339,0.23706 -0.0339,0.34995 0,0.45156 0.19191,0.7112 0.63218,0.83538 0.12418,0.0339 0.24835,0.0564 0.37253,0.0564 0.23707,0 0.56445,-0.0339 0.73378,-0.079 l 0.18062,-0.82409 c -0.37253,0.0903 -0.39511,0.0903 -0.54186,0.0903 -0.21449,0 -0.34996,-0.079 -0.39512,-0.22578 -0.0113,-0.0339 -0.0113,-0.0452 -0.0113,-0.079 0,-0.0339 0.0113,-0.0903 0.0226,-0.15805 l 0.88054,-4.14303 h 1.00471 z"
         style="font-style:italic;font-family:'Nimbus Sans';-inkscape-font-specification:'Nimbus Sans Italic'"
         id="path253618" />
      <path
         d="m 240.78317,251.40819 h -0.94827 l -1.25306,5.91538 h 0.94826 z m 0.49671,-2.31423 h -0.94826 l -0.24836,1.16276 h 0.94827 z"
         style="font-style:italic;font-family:'Nimbus Sans';-inkscape-font-specification:'Nimbus Sans Italic'"
         id="path253620" />
      <path
         d="m 243.43606,257.32357 3.51085,-5.91538 h -1.02729 l -2.7545,4.76391 -0.55315,-4.76391 h -1.03858 l 0.83538,5.91538 z"
         style="font-style:italic;font-family:'Nimbus Sans';-inkscape-font-specification:'Nimbus Sans Italic'"
         id="path253622" />
      <path
         d="m 251.93659,254.68197 c 0.15805,-0.88054 0.19192,-1.15147 0.19192,-1.51271 0,-1.09503 -0.93698,-1.93041 -2.15618,-1.93041 -0.98214,0 -1.91912,0.46285 -2.49485,1.21921 -0.53058,0.7112 -0.94827,1.98684 -0.94827,2.91253 0,0.6096 0.27094,1.23049 0.69991,1.64818 0.39512,0.38382 0.89183,0.56445 1.53529,0.56445 1.35467,0 2.51743,-0.83538 2.86738,-2.05458 h -0.94826 c -0.4064,0.77893 -1.00472,1.18533 -1.76107,1.18533 -0.89182,0 -1.39983,-0.55316 -1.39983,-1.51271 0,-0.24836 0.0113,-0.34996 0.0565,-0.51929 z m -4.15431,-0.8128 c 0.29351,-1.03858 1.12889,-1.76107 2.04329,-1.76107 0.68862,0 1.14018,0.37253 1.27565,1.04987 0.0226,0.11289 0.0339,0.22578 0.0339,0.33866 0,0.1016 -0.0113,0.19192 -0.0339,0.37254 z"
         style="font-style:italic;font-family:'Nimbus Sans';-inkscape-font-specification:'Nimbus Sans Italic'"
         id="path253624" />
      <path
         d="m 257.62619,253.05637 c 0.0564,-0.23707 0.0677,-0.33867 0.0677,-0.48543 0,-0.79022 -0.74507,-1.33209 -1.85138,-1.33209 -0.80151,0 -1.49014,0.23707 -1.95298,0.67734 -0.41769,0.39511 -0.67734,0.98213 -0.67734,1.51271 0,0.68862 0.39512,1.016 1.55787,1.3208 l 0.83538,0.21449 c 0.37254,0.1016 0.54187,0.16933 0.64347,0.29351 0.079,0.1016 0.14675,0.27094 0.14675,0.37254 0,0.13546 -0.11288,0.41769 -0.21448,0.55315 -0.18063,0.22578 -0.51929,0.4064 -0.92569,0.48543 -0.15805,0.0339 -0.31609,0.0452 -0.47414,0.0452 -0.67733,0 -1.07244,-0.21449 -1.18533,-0.63218 -0.0226,-0.079 -0.0339,-0.15804 -0.0339,-0.23706 0,-0.0677 0.0113,-0.16934 0.0226,-0.28223 h -1.00471 c -0.0565,0.25965 -0.0677,0.39511 -0.0677,0.57574 0,0.67733 0.46285,1.17404 1.25307,1.35467 0.27093,0.0564 0.55316,0.0903 0.84667,0.0903 1.68204,0 2.77707,-0.86925 2.77707,-2.21263 0,-0.68862 -0.37254,-1.04987 -1.36596,-1.29822 l -0.85796,-0.21449 c -0.53057,-0.13547 -0.84666,-0.31609 -0.93697,-0.54187 -0.0113,-0.0339 -0.0226,-0.079 -0.0226,-0.13546 0,-0.22578 0.13546,-0.50801 0.33866,-0.69992 0.27094,-0.25964 0.60961,-0.37253 1.10632,-0.37253 0.53058,0 0.85795,0.15804 0.99342,0.45156 0.0339,0.0677 0.0452,0.14675 0.0452,0.24835 0,0.0677 0,0.15805 -0.0113,0.24836 z"
         style="font-style:italic;font-family:'Nimbus Sans';-inkscape-font-specification:'Nimbus Sans Italic'"
         id="path253626" />
      <path
         d="m 262.63846,251.40819 -1.25307,5.91538 h 0.94827 l 0.65476,-3.07058 c 0.28222,-1.33209 1.03858,-2.02071 2.22391,-2.02071 h 0.11289 l 0.2032,-0.95956 -0.0677,-0.0113 c -0.1016,-0.0113 -0.19191,-0.0226 -0.29351,-0.0226 -0.65476,0 -1.15147,0.29352 -1.86267,1.09503 l 0.19191,-0.92569 z"
         style="font-style:italic;font-family:'Nimbus Sans';-inkscape-font-specification:'Nimbus Sans Italic'"
         id="path253628" />
      <path
         d="m 270.42782,256.74784 c -0.1016,0.0226 -0.14676,0.0226 -0.19192,0.0226 -0.23706,0 -0.38382,-0.079 -0.41769,-0.21449 -0.0113,-0.0339 -0.0113,-0.0677 -0.0113,-0.11289 0,-0.0339 0,-0.079 0.0113,-0.11289 l 0.72249,-3.39796 c 0.0677,-0.3048 0.0677,-0.3048 0.0677,-0.41769 0,-0.55316 -0.46285,-1.02729 -1.14018,-1.18533 -0.25965,-0.0565 -0.54187,-0.0903 -0.82409,-0.0903 -1.58045,0 -2.52871,0.66605 -2.7432,1.91912 h 0.94826 c 0.1016,-0.31609 0.18063,-0.47414 0.33867,-0.63218 0.24836,-0.25965 0.72249,-0.41769 1.20791,-0.41769 0.508,0 0.93698,0.16933 1.1176,0.45156 0.0564,0.079 0.079,0.16933 0.079,0.27093 0,0.0452 -0.0113,0.12418 -0.0226,0.21449 l -0.0339,0.2032 c -0.079,0.44027 -0.32738,0.59831 -1.14018,0.66604 -1.12889,0.1016 -1.6256,0.18063 -2.032,0.33867 -0.73378,0.28222 -1.20791,0.77893 -1.37724,1.43369 -0.0339,0.14676 -0.0564,0.3048 -0.0564,0.45156 0,0.64346 0.31609,1.12889 0.86925,1.3208 0.22577,0.079 0.48542,0.12418 0.74506,0.12418 0.41769,0 0.86925,-0.079 1.28694,-0.22578 0.34995,-0.12418 0.53058,-0.23707 0.99342,-0.64347 v 0.079 0.0452 c 0,0.32738 0.16934,0.58702 0.44027,0.67733 0.12418,0.0452 0.27093,0.0677 0.41769,0.0677 0.13546,0 0.16933,0 0.44027,-0.0677 0.0339,-0.0113 0.0903,-0.0226 0.15804,-0.0339 z m -1.36596,-1.27565 c -0.14676,0.69991 -1.14018,1.29823 -2.1336,1.29823 -0.39512,0 -0.68863,-0.1016 -0.84667,-0.28223 -0.1016,-0.12417 -0.15805,-0.28222 -0.15805,-0.46284 0,-0.37254 0.21449,-0.74507 0.55316,-0.94827 0.27093,-0.16933 0.59831,-0.25964 1.16276,-0.33867 1.14018,-0.15804 1.15146,-0.15804 1.64818,-0.32737 z"
         style="font-style:italic;font-family:'Nimbus Sans';-inkscape-font-specification:'Nimbus Sans Italic'"
         id="path253630" />
      <path
         d="m 272.50497,251.40819 -1.25307,5.91538 h 0.94827 l 0.65476,-3.07058 c 0.28222,-1.33209 1.03858,-2.02071 2.22391,-2.02071 h 0.11289 l 0.2032,-0.95956 -0.0677,-0.0113 c -0.1016,-0.0113 -0.19192,-0.0226 -0.29352,-0.0226 -0.65475,0 -1.15146,0.29352 -1.86266,1.09503 l 0.19191,-0.92569 z"
         style="font-style:italic;font-family:'Nimbus Sans';-inkscape-font-specification:'Nimbus Sans Italic'"
         id="path253632" />
      <path
         d="m 280.41849,254.68197 c 0.15805,-0.88054 0.19192,-1.15147 0.19192,-1.51271 0,-1.09503 -0.93698,-1.93041 -2.15618,-1.93041 -0.98214,0 -1.91912,0.46285 -2.49485,1.21921 -0.53058,0.7112 -0.94827,1.98684 -0.94827,2.91253 0,0.6096 0.27093,1.23049 0.69991,1.64818 0.39511,0.38382 0.89183,0.56445 1.53529,0.56445 1.35467,0 2.51743,-0.83538 2.86738,-2.05458 h -0.94826 c -0.4064,0.77893 -1.00472,1.18533 -1.76107,1.18533 -0.89183,0 -1.39983,-0.55316 -1.39983,-1.51271 0,-0.24836 0.0113,-0.34996 0.0564,-0.51929 z m -4.15431,-0.8128 c 0.29351,-1.03858 1.12889,-1.76107 2.04329,-1.76107 0.68862,0 1.14018,0.37253 1.27565,1.04987 0.0226,0.11289 0.0339,0.22578 0.0339,0.33866 0,0.1016 -0.0113,0.19192 -0.0339,0.37254 z"
         style="font-style:italic;font-family:'Nimbus Sans';-inkscape-font-specification:'Nimbus Sans Italic'"
         id="path253634" />
    </g>
  </g>
</svg>
